<svg xmlns="http://www.w3.org/2000/svg" xmlns:xlink="http://www.w3.org/1999/xlink" version="1.1" width="1000" height="1000" viewBox="0 0 1000 1000" xml:space="preserve">
<desc>Created with Fabric.js 3.5.0</desc>
<defs>
</defs>
<rect x="0" y="0" width="100%" height="100%" fill="#ffffff"/>
<g transform="matrix(1.4145 0 0 1.4145 499.9947 660.1)" id="277559">
<g style="" vector-effect="non-scaling-stroke">
		<g transform="matrix(1.3333 0 0 1.3333 -0.0166 -93.3444)">
<path style="stroke: none; stroke-width: 1; stroke-dasharray: none; stroke-linecap: butt; stroke-dashoffset: 0; stroke-linejoin: miter; stroke-miterlimit: 4; is-custom-font: none; font-file-url: none; fill: rgb(0,0,0); fill-rule: nonzero; opacity: 1;" transform=" translate(-349.9941, -279.9973)" d="m 124.65 280.22 l 219.16 219.16 c 1.7109 1.707 3.9492 2.5625 6.1875 2.5625 s 4.4805 -0.85547 6.1875 -2.5625 l 219.16 -219.16 c 19.367 -19.367 31.734 -43.926 35.766 -71.016 c 4.0312 -27.094 -0.65234 -54.188 -13.539 -78.355 c -23.945 -44.898 -70.434 -72.793 -121.32 -72.793 c -39.652 0 -77.367 17.113 -103.48 46.953 l -22.254 25.434 l -13.043 -17.391 c -25.828 -34.438 -66.949 -55 -110 -55 h -3.7383 c -50.887 0 -97.371 27.891 -121.32 72.793 c -12.891 24.168 -17.57 51.262 -13.539 78.355 c 4.0312 27.09 16.398 51.648 35.766 71.016 z m 198.69 -8.9688 c -13.254 0 -24.785 -7.4961 -30.59 -18.469 l 1.7617 -0.87891 c 12.055 -6.0273 19.738 -17.871 20.422 -31.215 l 10.535 -2.1055 c 3.3164 -0.66406 5.9531 -3.1758 6.7734 -6.457 c 4.1758 -16.703 19.121 -28.371 36.34 -28.371 h 20.426 c 11.113 0 21.602 5.3984 28.059 14.441 c 0.0625 0.085938 0.12891 0.17578 0.19531 0.26172 l 7.875 10.203 c -3.3555 0.4375 -6.6523 1.5078 -9.7188 3.2188 c -7.8008 4.3555 -12.941 12.266 -13.75 21.164 l -5.5 60.496 c -0.35156 3.8516 0 7.7031 0.98047 11.375 c -5.2227 0.66797 -10.484 1.0859 -15.742 1.25 c -0.625 -3.9453 -1.3242 -7.8945 -2.1055 -11.793 c -2.6797 -13.395 -14.535 -23.113 -28.195 -23.113 h -10.512 c -0.86328 -2.1289 -2.5312 -3.8906 -4.7383 -4.8047 c -3.2734 -1.3555 -7.0312 -0.60547 -9.5352 1.8984 l -2.9062 2.9062 h -0.066407 z m -34.633 -45.32 l 7.9844 -1.5977 c -1.2891 4.3711 -4.0781 8.1602 -7.9492 10.715 l -0.035156 -9.1211 z m 96.293 106.57 c 0 4.8242 -3.9258 8.75 -8.75 8.75 c -4.8242 0 -8.75 -3.9258 -8.75 -8.75 s 3.9258 -8.75 8.75 -8.75 c 4.8242 0 8.75 3.9258 8.75 8.75 z m 0 24.746 c 10.184 -3.6133 17.5 -13.336 17.5 -24.746 c 0 -3.6797 -0.76562 -7.1836 -2.1367 -10.367 c 2.2812 -0.30469 4.5586 -0.64062 6.8242 -1.0312 c 5.9336 5.1914 13.609 8.1172 21.562 8.1172 c 9.1719 0 17.977 -3.8828 24.164 -10.656 c 4.0469 -4.4297 6.75 -9.8711 7.9102 -15.66 c 5.6445 -2.9609 11.176 -6.2188 16.465 -9.7422 l 8.6211 -5.7461 l 25.047 32.457 l -125.95 125.95 v -88.574 z m 48.109 -130.16 l 0.33594 0.17969 c 2.8281 1.5234 4.6875 4.3398 4.9805 7.5352 l 5.4844 60.316 c 0.39063 4.3125 -1 8.4453 -3.918 11.641 c -2.9219 3.1953 -6.9102 4.957 -11.242 4.957 c -4.3281 0 -8.3203 -1.7617 -11.242 -4.957 c -2.918 -3.1953 -4.3125 -7.332 -3.918 -11.641 l 5.5 -60.496 c 0.28516 -3.1406 2.0977 -5.9297 4.8516 -7.4648 c 1.4531 -0.80859 3.0508 -1.2148 4.6484 -1.2148 c 1.5508 0 3.1016 0.38281 4.5195 1.1445 z m 34.469 51.512 c -2.3477 1.5664 -4.7539 3.0625 -7.1914 4.5117 l -2.9648 -32.602 l 17.766 23.02 l -7.6094 5.0742 z m -143.83 17.059 v 35.75 c 0 16.887 -13.738 30.625 -30.625 30.625 c -16.887 0 -30.625 -13.738 -30.625 -30.625 v -35.75 l 11.312 11.312 c 1.6406 1.6406 3.8672 2.5625 6.1875 2.5625 h 26.25 c 2.3203 0 4.5469 -0.92188 6.1875 -2.5625 z m -67.305 66.855 c 8.8359 10.402 21.996 17.023 36.68 17.023 c 7.875 0 15.305 -1.9141 21.875 -5.2812 v 71.57 l -65.926 -65.926 c 0.14844 -0.32422 0.29688 -0.64453 0.40625 -0.99219 c 1.8047 -5.6758 4.1445 -11.16 6.9648 -16.391 z m 93.555 118.31 l -17.5 -17.5 v -104.29 c 5.5039 -7.8242 8.75 -17.348 8.75 -27.617 v -42.656 h 9.8516 c 5.3477 0 9.9883 3.8047 11.035 9.0469 c 0.75391 3.7695 1.4336 7.5938 2.0312 11.41 c -8.4062 4.3789 -14.168 13.172 -14.168 23.293 c 0 11.406 7.3164 21.133 17.5 24.746 v 106.07 l -17.5 17.5 z m -232.14 -341.74 c 20.898 -39.184 61.469 -63.527 105.88 -63.527 h 3.7383 c 37.57 0 73.457 17.941 95.996 48 l 19.52 26.027 c 1.582 2.1094 4.0352 3.3945 6.6719 3.4922 c 2.6602 0.11328 5.1797 -0.99609 6.9141 -2.9805 l 29.363 -33.559 c 22.789 -26.043 55.703 -40.977 90.309 -40.977 c 44.41 0 84.98 24.344 105.88 63.527 c 11.109 20.832 15.148 44.188 11.672 67.543 c -3.4766 23.355 -14.137 44.523 -30.832 61.219 l -39.547 39.547 l -92.227 -119.51 c -9.7461 -13.547 -25.508 -21.633 -42.203 -21.633 h -20.426 c -23.352 0 -43.852 14.625 -51.66 36.191 l -31.645 6.3281 c -8.1289 1.625 -14.023 8.8203 -14.023 17.109 v 10.777 c 0 23.445 15.574 43.316 36.918 49.832 l -5.543 5.543 h -19 l -23.688 -23.688 c -2.5039 -2.5039 -6.2656 -3.25 -9.5352 -1.8984 c -3.2695 1.3555 -5.4023 4.543 -5.4023 8.0859 v 56.875 c 0 4.582 0.65625 9.0117 1.8594 13.215 c -0.13281 0.17188 -0.26562 0.34375 -0.39062 0.52344 c -4.4219 6.6328 -8.1211 13.703 -11.047 21.098 l -98.391 -98.398 c -16.695 -16.695 -27.359 -37.863 -30.832 -61.219 c -3.4766 -23.355 0.5625 -46.711 11.672 -67.543 z" stroke-linecap="round"/>
</g>
		<g transform="matrix(1.3333 0 0 1.3333 23.333 -175.0003)">
<path style="stroke: none; stroke-width: 1; stroke-dasharray: none; stroke-linecap: butt; stroke-dashoffset: 0; stroke-linejoin: miter; stroke-miterlimit: 4; is-custom-font: none; font-file-url: none; fill: rgb(0,0,0); fill-rule: nonzero; opacity: 1;" transform=" translate(-367.5, -218.75)" d="m 376.25 218.75 c 0 4.832 -3.918 8.75 -8.75 8.75 s -8.75 -3.918 -8.75 -8.75 s 3.918 -8.75 8.75 -8.75 s 8.75 3.918 8.75 8.75" stroke-linecap="round"/>
</g>
		<g transform="matrix(1.3333 0 0 1.3333 -55.4112 -30.6268)">
<path style="stroke: none; stroke-width: 1; stroke-dasharray: none; stroke-linecap: butt; stroke-dashoffset: 0; stroke-linejoin: miter; stroke-miterlimit: 4; is-custom-font: none; font-file-url: none; fill: rgb(0,0,0); fill-rule: nonzero; opacity: 1;" transform=" translate(-308.4417, -327.03)" d="m 314.43 327.03 c 0 3.3086 -2.6797 5.9883 -5.9883 5.9883 s -5.9883 -2.6797 -5.9883 -5.9883 s 2.6797 -5.9883 5.9883 -5.9883 s 5.9883 2.6797 5.9883 5.9883" stroke-linecap="round"/>
</g>
		<g transform="matrix(1.3333 0 0 1.3333 -97.7046 -30.6268)">
<path style="stroke: none; stroke-width: 1; stroke-dasharray: none; stroke-linecap: butt; stroke-dashoffset: 0; stroke-linejoin: miter; stroke-miterlimit: 4; is-custom-font: none; font-file-url: none; fill: rgb(0,0,0); fill-rule: nonzero; opacity: 1;" transform=" translate(-276.7217, -327.03)" d="m 282.71 327.03 c 0 3.3086 -2.6797 5.9883 -5.9883 5.9883 s -5.9883 -2.6797 -5.9883 -5.9883 s 2.6797 -5.9883 5.9883 -5.9883 s 5.9883 2.6797 5.9883 5.9883" stroke-linecap="round"/>
</g>
		<g transform="matrix(1.3333 0 0 1.3333 -370.719 299.2187)">
<path style="stroke: none; stroke-width: 1; stroke-dasharray: none; stroke-linecap: butt; stroke-dashoffset: 0; stroke-linejoin: miter; stroke-miterlimit: 4; is-custom-font: none; font-file-url: none; fill: rgb(0,0,0); fill-rule: nonzero; opacity: 1;" transform=" translate(-1.9609, 1.9922)" d="m 3.6562 -0.21875 c -0.1875 0.09375 -0.38672 0.16797 -0.59375 0.21875 c -0.19922 0.050781 -0.40625 0.078125 -0.625 0.078125 c -0.66797 0 -1.1992 -0.17969 -1.5938 -0.54688 c -0.38672 -0.375 -0.57812 -0.87891 -0.57812 -1.5156 c 0 -0.64453 0.19141 -1.1484 0.57812 -1.5156 c 0.39453 -0.375 0.92578 -0.5625 1.5938 -0.5625 c 0.21875 0 0.42578 0.027344 0.625 0.078125 c 0.20703 0.054687 0.40625 0.125 0.59375 0.21875 v 0.82812 c -0.1875 -0.125 -0.375 -0.21875 -0.5625 -0.28125 c -0.17969 -0.0625 -0.37109 -0.09375 -0.57812 -0.09375 c -0.36719 0 -0.65625 0.12109 -0.875 0.35938 c -0.21094 0.23047 -0.3125 0.55469 -0.3125 0.96875 c 0 0.40625 0.10156 0.73047 0.3125 0.96875 c 0.21875 0.23047 0.50781 0.34375 0.875 0.34375 c 0.20703 0 0.39844 -0.023437 0.57812 -0.078125 c 0.1875 -0.0625 0.375 -0.16016 0.5625 -0.29688 z" stroke-linecap="round"/>
</g>
		<g transform="matrix(1.3333 0 0 1.3333 -365.8907 299.8332)">
<path style="stroke: none; stroke-width: 1; stroke-dasharray: none; stroke-linecap: butt; stroke-dashoffset: 0; stroke-linejoin: miter; stroke-miterlimit: 4; is-custom-font: none; font-file-url: none; fill: rgb(0,0,0); fill-rule: nonzero; opacity: 1;" transform=" translate(-1.5703, 1.5313)" d="m 2.6875 -2.1719 c -0.085938 -0.039063 -0.16797 -0.070313 -0.25 -0.09375 c -0.085938 -0.019531 -0.16797 -0.03125 -0.25 -0.03125 c -0.25 0 -0.44531 0.085937 -0.57812 0.25 c -0.125 0.15625 -0.1875 0.38281 -0.1875 0.67188 v 1.375 h -0.96875 v -2.9844 h 0.96875 v 0.48438 c 0.11328 -0.19531 0.25 -0.33594 0.40625 -0.42188 c 0.16406 -0.09375 0.35938 -0.14062 0.57812 -0.14062 h 0.10938 c 0.039063 0 0.09375 0.007812 0.15625 0.015625 z" stroke-linecap="round"/>
</g>
		<g transform="matrix(1.3333 0 0 1.3333 -361.9376 299.8854)">
<path style="stroke: none; stroke-width: 1; stroke-dasharray: none; stroke-linecap: butt; stroke-dashoffset: 0; stroke-linejoin: miter; stroke-miterlimit: 4; is-custom-font: none; font-file-url: none; fill: rgb(0,0,0); fill-rule: nonzero; opacity: 1;" transform=" translate(-1.836, 1.4922)" d="m 3.4375 -1.5 v 0.26562 h -2.2344 c 0.03125 0.23047 0.11328 0.40234 0.25 0.51562 c 0.13281 0.10547 0.32812 0.15625 0.57812 0.15625 c 0.20703 0 0.41406 -0.023438 0.625 -0.078125 c 0.20703 -0.0625 0.42188 -0.15625 0.64062 -0.28125 v 0.73438 c -0.21875 0.09375 -0.44531 0.16406 -0.67188 0.20312 c -0.23047 0.039062 -0.45312 0.0625 -0.67188 0.0625 c -0.54297 0 -0.96484 -0.13281 -1.2656 -0.40625 c -0.30469 -0.28125 -0.45312 -0.67188 -0.45312 -1.1719 c 0 -0.47656 0.14453 -0.85938 0.4375 -1.1406 c 0.30078 -0.28125 0.70703 -0.42188 1.2188 -0.42188 c 0.46875 0 0.84375 0.14062 1.125 0.42188 s 0.42188 0.66406 0.42188 1.1406 z m -0.96875 -0.32812 c 0 -0.17578 -0.058594 -0.31641 -0.17188 -0.42188 c -0.10547 -0.11328 -0.24219 -0.17188 -0.40625 -0.17188 c -0.1875 0 -0.33984 0.054687 -0.45312 0.15625 c -0.11719 0.10547 -0.1875 0.25 -0.21875 0.4375 z" stroke-linecap="round"/>
</g>
		<g transform="matrix(1.3333 0 0 1.3333 -357.1094 299.8852)">
<path style="stroke: none; stroke-width: 1; stroke-dasharray: none; stroke-linecap: butt; stroke-dashoffset: 0; stroke-linejoin: miter; stroke-miterlimit: 4; is-custom-font: none; font-file-url: none; fill: rgb(0,0,0); fill-rule: nonzero; opacity: 1;" transform=" translate(-1.7501, 1.4923)" d="m 1.7969 -1.3438 c -0.19922 0 -0.35156 0.039062 -0.45312 0.10938 c -0.09375 0.0625 -0.14062 0.16406 -0.14062 0.29688 c 0 0.11719 0.035156 0.21094 0.10938 0.28125 c 0.082031 0.0625 0.19531 0.09375 0.34375 0.09375 c 0.17578 0 0.32812 -0.0625 0.45312 -0.1875 s 0.1875 -0.28516 0.1875 -0.48438 v -0.10938 z m 1.4688 -0.35938 v 1.7031 h -0.96875 v -0.4375 c -0.125 0.17969 -0.27344 0.30859 -0.4375 0.39062 c -0.15625 0.082031 -0.35156 0.125 -0.57812 0.125 c -0.3125 0 -0.57031 -0.085938 -0.76562 -0.26562 c -0.1875 -0.1875 -0.28125 -0.42188 -0.28125 -0.70312 c 0 -0.35156 0.11719 -0.61328 0.35938 -0.78125 c 0.23828 -0.16406 0.61719 -0.25 1.1406 -0.25 h 0.5625 v -0.0625 c 0 -0.15625 -0.0625 -0.26562 -0.1875 -0.32812 c -0.11719 -0.070312 -0.29688 -0.10938 -0.54688 -0.10938 c -0.21094 0 -0.40234 0.023437 -0.57812 0.0625 c -0.17969 0.042969 -0.33984 0.10156 -0.48438 0.17188 v -0.71875 c 0.19531 -0.050781 0.39844 -0.085938 0.60938 -0.10938 c 0.20703 -0.03125 0.41406 -0.046875 0.625 -0.046875 c 0.53906 0 0.92969 0.10938 1.1719 0.32812 c 0.23828 0.21094 0.35938 0.55469 0.35938 1.0312 z" stroke-linecap="round"/>
</g>
		<g transform="matrix(1.3333 0 0 1.3333 -352.8125 299.3124)">
<path style="stroke: none; stroke-width: 1; stroke-dasharray: none; stroke-linecap: butt; stroke-dashoffset: 0; stroke-linejoin: miter; stroke-miterlimit: 4; is-custom-font: none; font-file-url: none; fill: rgb(0,0,0); fill-rule: nonzero; opacity: 1;" transform=" translate(-1.2813, 1.922)" d="m 1.5 -3.8438 v 0.85938 h 0.98438 v 0.67188 h -0.98438 v 1.2812 c 0 0.13672 0.023438 0.23047 0.078125 0.28125 c 0.0625 0.042969 0.17578 0.0625 0.34375 0.0625 h 0.48438 v 0.6875 h -0.8125 c -0.38672 0 -0.65625 -0.078125 -0.8125 -0.23438 s -0.23438 -0.42188 -0.23438 -0.79688 v -1.2812 h -0.46875 v -0.67188 h 0.46875 v -0.85938 z" stroke-linecap="round"/>
</g>
		<g transform="matrix(1.3333 0 0 1.3333 -348.5886 299.8854)">
<path style="stroke: none; stroke-width: 1; stroke-dasharray: none; stroke-linecap: butt; stroke-dashoffset: 0; stroke-linejoin: miter; stroke-miterlimit: 4; is-custom-font: none; font-file-url: none; fill: rgb(0,0,0); fill-rule: nonzero; opacity: 1;" transform=" translate(-1.836, 1.4922)" d="m 3.4375 -1.5 v 0.26562 h -2.2344 c 0.03125 0.23047 0.11328 0.40234 0.25 0.51562 c 0.13281 0.10547 0.32812 0.15625 0.57812 0.15625 c 0.20703 0 0.41406 -0.023438 0.625 -0.078125 c 0.20703 -0.0625 0.42188 -0.15625 0.64062 -0.28125 v 0.73438 c -0.21875 0.09375 -0.44531 0.16406 -0.67188 0.20312 c -0.23047 0.039062 -0.45312 0.0625 -0.67188 0.0625 c -0.54297 0 -0.96484 -0.13281 -1.2656 -0.40625 c -0.30469 -0.28125 -0.45312 -0.67188 -0.45312 -1.1719 c 0 -0.47656 0.14453 -0.85938 0.4375 -1.1406 c 0.30078 -0.28125 0.70703 -0.42188 1.2188 -0.42188 c 0.46875 0 0.84375 0.14062 1.125 0.42188 s 0.42188 0.66406 0.42188 1.1406 z m -0.96875 -0.32812 c 0 -0.17578 -0.058594 -0.31641 -0.17188 -0.42188 c -0.10547 -0.11328 -0.24219 -0.17188 -0.40625 -0.17188 c -0.1875 0 -0.33984 0.054687 -0.45312 0.15625 c -0.11719 0.10547 -0.1875 0.25 -0.21875 0.4375 z" stroke-linecap="round"/>
</g>
		<g transform="matrix(1.3333 0 0 1.3333 -343.6199 299.1561)">
<path style="stroke: none; stroke-width: 1; stroke-dasharray: none; stroke-linecap: butt; stroke-dashoffset: 0; stroke-linejoin: miter; stroke-miterlimit: 4; is-custom-font: none; font-file-url: none; fill: rgb(0,0,0); fill-rule: nonzero; opacity: 1;" transform=" translate(-1.8516, 2.0391)" d="m 2.5 -2.5469 v -1.6094 h 0.95312 v 4.1562 h -0.95312 v -0.4375 c -0.13672 0.17969 -0.28125 0.30859 -0.4375 0.39062 c -0.15625 0.082031 -0.33984 0.125 -0.54688 0.125 c -0.375 0 -0.68359 -0.14453 -0.92188 -0.4375 c -0.23047 -0.28906 -0.34375 -0.67188 -0.34375 -1.1406 c 0 -0.45703 0.11328 -0.83203 0.34375 -1.125 c 0.23828 -0.28906 0.54688 -0.4375 0.92188 -0.4375 c 0.19531 0 0.375 0.042969 0.53125 0.125 c 0.16406 0.085938 0.31641 0.21484 0.45312 0.39062 z m -0.64062 1.9375 c 0.20703 0 0.36328 -0.070313 0.46875 -0.21875 c 0.11328 -0.15625 0.17188 -0.37891 0.17188 -0.67188 c 0 -0.28125 -0.058594 -0.49219 -0.17188 -0.64062 c -0.10547 -0.15625 -0.26172 -0.23438 -0.46875 -0.23438 c -0.19922 0 -0.35547 0.078125 -0.46875 0.23438 c -0.10547 0.14844 -0.15625 0.35938 -0.15625 0.64062 c 0 0.29297 0.050781 0.51562 0.15625 0.67188 c 0.11328 0.14844 0.26953 0.21875 0.46875 0.21875 z" stroke-linecap="round"/>
</g>
		<g transform="matrix(1.3333 0 0 1.3333 -335.5834 299.1562)">
<path style="stroke: none; stroke-width: 1; stroke-dasharray: none; stroke-linecap: butt; stroke-dashoffset: 0; stroke-linejoin: miter; stroke-miterlimit: 4; is-custom-font: none; font-file-url: none; fill: rgb(0,0,0); fill-rule: nonzero; opacity: 1;" transform=" translate(-2.0625, 2.0391)" d="m 2.0469 -0.60938 c 0.20703 0 0.36328 -0.070313 0.46875 -0.21875 c 0.11328 -0.15625 0.17188 -0.37891 0.17188 -0.67188 c 0 -0.28125 -0.058594 -0.49219 -0.17188 -0.64062 c -0.10547 -0.15625 -0.26172 -0.23438 -0.46875 -0.23438 c -0.19922 0 -0.35547 0.078125 -0.46875 0.23438 c -0.10547 0.14844 -0.15625 0.35938 -0.15625 0.64062 c 0 0.29297 0.050781 0.51562 0.15625 0.67188 c 0.11328 0.14844 0.26953 0.21875 0.46875 0.21875 z m -0.625 -1.9375 c 0.125 -0.17578 0.26562 -0.30469 0.42188 -0.39062 c 0.16406 -0.082031 0.35156 -0.125 0.5625 -0.125 c 0.36328 0 0.66406 0.14844 0.90625 0.4375 c 0.23828 0.29297 0.35938 0.66797 0.35938 1.125 c 0 0.46875 -0.12109 0.85156 -0.35938 1.1406 c -0.24219 0.29297 -0.54297 0.4375 -0.90625 0.4375 c -0.21094 0 -0.39844 -0.042969 -0.5625 -0.125 c -0.15625 -0.082031 -0.29688 -0.21094 -0.42188 -0.39062 v 0.4375 h -0.96875 v -4.1562 h 0.96875 z" stroke-linecap="round"/>
</g>
		<g transform="matrix(1.3333 0 0 1.3333 -330.7553 300.6769)">
<path style="stroke: none; stroke-width: 1; stroke-dasharray: none; stroke-linecap: butt; stroke-dashoffset: 0; stroke-linejoin: miter; stroke-miterlimit: 4; is-custom-font: none; font-file-url: none; fill: rgb(0,0,0); fill-rule: nonzero; opacity: 1;" transform=" translate(-1.7656, 0.8985)" d="m 0.0625 -2.9844 h 0.95312 l 0.8125 2.0156 l 0.6875 -2.0156 h 0.95312 l -1.2656 3.2656 c -0.125 0.33203 -0.27344 0.56641 -0.4375 0.70312 c -0.16797 0.13281 -0.39062 0.20312 -0.67188 0.20312 h -0.54688 v -0.64062 h 0.29688 c 0.16406 0 0.28516 -0.027344 0.35938 -0.078125 c 0.070313 -0.054688 0.12891 -0.14062 0.17188 -0.26562 l 0.03125 -0.09375 z" stroke-linecap="round"/>
</g>
		<g transform="matrix(1.3333 0 0 1.3333 -323.6303 299.8853)">
<path style="stroke: none; stroke-width: 1; stroke-dasharray: none; stroke-linecap: butt; stroke-dashoffset: 0; stroke-linejoin: miter; stroke-miterlimit: 4; is-custom-font: none; font-file-url: none; fill: rgb(0,0,0); fill-rule: nonzero; opacity: 1;" transform=" translate(-1.6406, 1.4922)" d="m 2.7969 -2.8906 v 0.71875 c -0.21094 -0.082031 -0.40625 -0.14453 -0.59375 -0.1875 c -0.1875 -0.039063 -0.37109 -0.0625 -0.54688 -0.0625 c -0.17969 0 -0.3125 0.023437 -0.40625 0.0625 c -0.085938 0.042969 -0.125 0.10938 -0.125 0.20312 c 0 0.085938 0.03125 0.14844 0.09375 0.1875 c 0.070312 0.042969 0.19531 0.074219 0.375 0.09375 l 0.15625 0.015625 c 0.48828 0.0625 0.81641 0.16797 0.98438 0.3125 c 0.17578 0.13672 0.26562 0.35938 0.26562 0.67188 s -0.12109 0.55469 -0.35938 0.71875 c -0.23047 0.15625 -0.57812 0.23438 -1.0469 0.23438 c -0.19922 0 -0.40625 -0.015625 -0.625 -0.046875 c -0.21094 -0.03125 -0.42188 -0.078125 -0.64062 -0.14062 v -0.71875 c 0.1875 0.085937 0.37891 0.15234 0.57812 0.20312 c 0.20703 0.042969 0.41406 0.0625 0.625 0.0625 c 0.1875 0 0.32812 -0.023438 0.42188 -0.078125 c 0.09375 -0.050781 0.14062 -0.125 0.14062 -0.21875 s -0.039062 -0.16016 -0.10938 -0.20312 c -0.0625 -0.039062 -0.1875 -0.070312 -0.375 -0.09375 l -0.17188 -0.015625 c -0.42969 -0.050781 -0.73047 -0.14844 -0.90625 -0.29688 c -0.16797 -0.14453 -0.25 -0.36328 -0.25 -0.65625 c 0 -0.32031 0.10938 -0.55469 0.32812 -0.70312 c 0.21875 -0.15625 0.55078 -0.23438 1 -0.23438 c 0.17578 0 0.35938 0.015625 0.54688 0.046875 c 0.19531 0.023437 0.41016 0.0625 0.64062 0.125 z" stroke-linecap="round"/>
</g>
		<g transform="matrix(1.3333 0 0 1.3333 -318.9063 299.9374)">
<path style="stroke: none; stroke-width: 1; stroke-dasharray: none; stroke-linecap: butt; stroke-dashoffset: 0; stroke-linejoin: miter; stroke-miterlimit: 4; is-custom-font: none; font-file-url: none; fill: rgb(0,0,0); fill-rule: nonzero; opacity: 1;" transform=" translate(-1.9297, 1.4532)" d="m 0.42188 -1.1719 v -1.8125 h 0.96875 v 0.29688 v 0.60938 v 0.48438 c 0 0.24219 0.003906 0.41797 0.015625 0.53125 c 0.007812 0.10547 0.03125 0.17969 0.0625 0.21875 c 0.039062 0.0625 0.09375 0.11719 0.15625 0.15625 c 0.0625 0.03125 0.13281 0.046875 0.21875 0.046875 c 0.19531 0 0.35156 -0.078125 0.46875 -0.23438 c 0.11328 -0.15625 0.17188 -0.36719 0.17188 -0.64062 v -1.4688 h 0.95312 v 2.9844 h -0.95312 v -0.4375 c -0.14844 0.17969 -0.30469 0.30859 -0.46875 0.39062 c -0.15625 0.082031 -0.33594 0.125 -0.53125 0.125 c -0.34375 0 -0.60938 -0.10156 -0.79688 -0.3125 c -0.17969 -0.21875 -0.26562 -0.53125 -0.26562 -0.9375 z" stroke-linecap="round"/>
</g>
		<g transform="matrix(1.3333 0 0 1.3333 -313.5365 300.5937)">
<path style="stroke: none; stroke-width: 1; stroke-dasharray: none; stroke-linecap: butt; stroke-dashoffset: 0; stroke-linejoin: miter; stroke-miterlimit: 4; is-custom-font: none; font-file-url: none; fill: rgb(0,0,0); fill-rule: nonzero; opacity: 1;" transform=" translate(-2.0625, 0.961)" d="m 1.4219 -0.4375 v 1.5781 h -0.96875 v -4.125 h 0.96875 v 0.4375 c 0.125 -0.17578 0.26562 -0.30469 0.42188 -0.39062 c 0.16406 -0.082031 0.35156 -0.125 0.5625 -0.125 c 0.36328 0 0.66406 0.14844 0.90625 0.4375 c 0.23828 0.29297 0.35938 0.66797 0.35938 1.125 c 0 0.46875 -0.12109 0.85156 -0.35938 1.1406 c -0.24219 0.29297 -0.54297 0.4375 -0.90625 0.4375 c -0.21094 0 -0.39844 -0.042969 -0.5625 -0.125 c -0.15625 -0.082031 -0.29688 -0.21094 -0.42188 -0.39062 z m 0.625 -1.9375 c -0.19922 0 -0.35547 0.078125 -0.46875 0.23438 c -0.10547 0.14844 -0.15625 0.35938 -0.15625 0.64062 c 0 0.29297 0.050781 0.51562 0.15625 0.67188 c 0.11328 0.14844 0.26953 0.21875 0.46875 0.21875 c 0.20703 0 0.36328 -0.070313 0.46875 -0.21875 c 0.11328 -0.15625 0.17188 -0.37891 0.17188 -0.67188 c 0 -0.28125 -0.058594 -0.49219 -0.17188 -0.64062 c -0.10547 -0.15625 -0.26172 -0.23438 -0.46875 -0.23438 z" stroke-linecap="round"/>
</g>
		<g transform="matrix(1.3333 0 0 1.3333 -308.7344 299.8852)">
<path style="stroke: none; stroke-width: 1; stroke-dasharray: none; stroke-linecap: butt; stroke-dashoffset: 0; stroke-linejoin: miter; stroke-miterlimit: 4; is-custom-font: none; font-file-url: none; fill: rgb(0,0,0); fill-rule: nonzero; opacity: 1;" transform=" translate(-1.7501, 1.4923)" d="m 1.7969 -1.3438 c -0.19922 0 -0.35156 0.039062 -0.45312 0.10938 c -0.09375 0.0625 -0.14062 0.16406 -0.14062 0.29688 c 0 0.11719 0.035156 0.21094 0.10938 0.28125 c 0.082031 0.0625 0.19531 0.09375 0.34375 0.09375 c 0.17578 0 0.32812 -0.0625 0.45312 -0.1875 s 0.1875 -0.28516 0.1875 -0.48438 v -0.10938 z m 1.4688 -0.35938 v 1.7031 h -0.96875 v -0.4375 c -0.125 0.17969 -0.27344 0.30859 -0.4375 0.39062 c -0.15625 0.082031 -0.35156 0.125 -0.57812 0.125 c -0.3125 0 -0.57031 -0.085938 -0.76562 -0.26562 c -0.1875 -0.1875 -0.28125 -0.42188 -0.28125 -0.70312 c 0 -0.35156 0.11719 -0.61328 0.35938 -0.78125 c 0.23828 -0.16406 0.61719 -0.25 1.1406 -0.25 h 0.5625 v -0.0625 c 0 -0.15625 -0.0625 -0.26562 -0.1875 -0.32812 c -0.11719 -0.070312 -0.29688 -0.10938 -0.54688 -0.10938 c -0.21094 0 -0.40234 0.023437 -0.57812 0.0625 c -0.17969 0.042969 -0.33984 0.10156 -0.48438 0.17188 v -0.71875 c 0.19531 -0.050781 0.39844 -0.085938 0.60938 -0.10938 c 0.20703 -0.03125 0.41406 -0.046875 0.625 -0.046875 c 0.53906 0 0.92969 0.10938 1.1719 0.32812 c 0.23828 0.21094 0.35938 0.55469 0.35938 1.0312 z" stroke-linecap="round"/>
</g>
		<g transform="matrix(1.3333 0 0 1.3333 -304.901 299.1041)">
<path style="stroke: none; stroke-width: 1; stroke-dasharray: none; stroke-linecap: butt; stroke-dashoffset: 0; stroke-linejoin: miter; stroke-miterlimit: 4; is-custom-font: none; font-file-url: none; fill: rgb(0,0,0); fill-rule: nonzero; opacity: 1;" transform=" translate(-0.9375, 2.0781)" d="m 0.45312 -4.1562 h 0.96875 v 4.1562 h -0.96875 z" stroke-linecap="round"/>
</g>
		<g transform="matrix(1.3333 0 0 1.3333 -301.2032 299.8854)">
<path style="stroke: none; stroke-width: 1; stroke-dasharray: none; stroke-linecap: butt; stroke-dashoffset: 0; stroke-linejoin: miter; stroke-miterlimit: 4; is-custom-font: none; font-file-url: none; fill: rgb(0,0,0); fill-rule: nonzero; opacity: 1;" transform=" translate(-1.836, 1.4922)" d="m 3.4375 -1.5 v 0.26562 h -2.2344 c 0.03125 0.23047 0.11328 0.40234 0.25 0.51562 c 0.13281 0.10547 0.32812 0.15625 0.57812 0.15625 c 0.20703 0 0.41406 -0.023438 0.625 -0.078125 c 0.20703 -0.0625 0.42188 -0.15625 0.64062 -0.28125 v 0.73438 c -0.21875 0.09375 -0.44531 0.16406 -0.67188 0.20312 c -0.23047 0.039062 -0.45312 0.0625 -0.67188 0.0625 c -0.54297 0 -0.96484 -0.13281 -1.2656 -0.40625 c -0.30469 -0.28125 -0.45312 -0.67188 -0.45312 -1.1719 c 0 -0.47656 0.14453 -0.85938 0.4375 -1.1406 c 0.30078 -0.28125 0.70703 -0.42188 1.2188 -0.42188 c 0.46875 0 0.84375 0.14062 1.125 0.42188 s 0.42188 0.66406 0.42188 1.1406 z m -0.96875 -0.32812 c 0 -0.17578 -0.058594 -0.31641 -0.17188 -0.42188 c -0.10547 -0.11328 -0.24219 -0.17188 -0.40625 -0.17188 c -0.1875 0 -0.33984 0.054687 -0.45312 0.15625 c -0.11719 0.10547 -0.1875 0.25 -0.21875 0.4375 z" stroke-linecap="round"/>
</g>
		<g transform="matrix(1.3333 0 0 1.3333 -296.6094 299.8332)">
<path style="stroke: none; stroke-width: 1; stroke-dasharray: none; stroke-linecap: butt; stroke-dashoffset: 0; stroke-linejoin: miter; stroke-miterlimit: 4; is-custom-font: none; font-file-url: none; fill: rgb(0,0,0); fill-rule: nonzero; opacity: 1;" transform=" translate(-1.5703, 1.5313)" d="m 2.6875 -2.1719 c -0.085938 -0.039063 -0.16797 -0.070313 -0.25 -0.09375 c -0.085938 -0.019531 -0.16797 -0.03125 -0.25 -0.03125 c -0.25 0 -0.44531 0.085937 -0.57812 0.25 c -0.125 0.15625 -0.1875 0.38281 -0.1875 0.67188 v 1.375 h -0.96875 v -2.9844 h 0.96875 v 0.48438 c 0.11328 -0.19531 0.25 -0.33594 0.40625 -0.42188 c 0.16406 -0.09375 0.35938 -0.14062 0.57812 -0.14062 h 0.10938 c 0.039063 0 0.09375 0.007812 0.15625 0.015625 z" stroke-linecap="round"/>
</g>
		<g transform="matrix(1.3333 0 0 1.3333 -292.3177 299.1041)">
<path style="stroke: none; stroke-width: 1; stroke-dasharray: none; stroke-linecap: butt; stroke-dashoffset: 0; stroke-linejoin: miter; stroke-miterlimit: 4; is-custom-font: none; font-file-url: none; fill: rgb(0,0,0); fill-rule: nonzero; opacity: 1;" transform=" translate(-2.0938, 2.0781)" d="m 0.45312 -4.1562 h 0.96875 v 2.2656 l 1.0938 -1.0938 h 1.1094 l -1.4531 1.3594 l 1.5625 1.625 h -1.1562 l -1.1562 -1.25 v 1.25 h -0.96875 z" stroke-linecap="round"/>
</g>
		<g transform="matrix(1.3333 0 0 1.3333 -286.4688 299.1041)">
<path style="stroke: none; stroke-width: 1; stroke-dasharray: none; stroke-linecap: butt; stroke-dashoffset: 0; stroke-linejoin: miter; stroke-miterlimit: 4; is-custom-font: none; font-file-url: none; fill: rgb(0,0,0); fill-rule: nonzero; opacity: 1;" transform=" translate(-0.9375, 2.0781)" d="m 0.45312 -4.1562 h 0.96875 v 4.1562 h -0.96875 z" stroke-linecap="round"/>
</g>
		<g transform="matrix(1.3333 0 0 1.3333 -282.8854 299.8852)">
<path style="stroke: none; stroke-width: 1; stroke-dasharray: none; stroke-linecap: butt; stroke-dashoffset: 0; stroke-linejoin: miter; stroke-miterlimit: 4; is-custom-font: none; font-file-url: none; fill: rgb(0,0,0); fill-rule: nonzero; opacity: 1;" transform=" translate(-1.7501, 1.4923)" d="m 1.7969 -1.3438 c -0.19922 0 -0.35156 0.039062 -0.45312 0.10938 c -0.09375 0.0625 -0.14062 0.16406 -0.14062 0.29688 c 0 0.11719 0.035156 0.21094 0.10938 0.28125 c 0.082031 0.0625 0.19531 0.09375 0.34375 0.09375 c 0.17578 0 0.32812 -0.0625 0.45312 -0.1875 s 0.1875 -0.28516 0.1875 -0.48438 v -0.10938 z m 1.4688 -0.35938 v 1.7031 h -0.96875 v -0.4375 c -0.125 0.17969 -0.27344 0.30859 -0.4375 0.39062 c -0.15625 0.082031 -0.35156 0.125 -0.57812 0.125 c -0.3125 0 -0.57031 -0.085938 -0.76562 -0.26562 c -0.1875 -0.1875 -0.28125 -0.42188 -0.28125 -0.70312 c 0 -0.35156 0.11719 -0.61328 0.35938 -0.78125 c 0.23828 -0.16406 0.61719 -0.25 1.1406 -0.25 h 0.5625 v -0.0625 c 0 -0.15625 -0.0625 -0.26562 -0.1875 -0.32812 c -0.11719 -0.070312 -0.29688 -0.10938 -0.54688 -0.10938 c -0.21094 0 -0.40234 0.023437 -0.57812 0.0625 c -0.17969 0.042969 -0.33984 0.10156 -0.48438 0.17188 v -0.71875 c 0.19531 -0.050781 0.39844 -0.085938 0.60938 -0.10938 c 0.20703 -0.03125 0.41406 -0.046875 0.625 -0.046875 c 0.53906 0 0.92969 0.10938 1.1719 0.32812 c 0.23828 0.21094 0.35938 0.55469 0.35938 1.0312 z" stroke-linecap="round"/>
</g>
		<g transform="matrix(1.3333 0 0 1.3333 -279.0521 299.104)">
<path style="stroke: none; stroke-width: 1; stroke-dasharray: none; stroke-linecap: butt; stroke-dashoffset: 0; stroke-linejoin: miter; stroke-miterlimit: 4; is-custom-font: none; font-file-url: none; fill: rgb(0,0,0); fill-rule: nonzero; opacity: 1;" transform=" translate(-0.9375, 2.0781)" d="m 0.45312 -2.9844 h 0.96875 v 2.9844 h -0.96875 z m 0 -1.1719 h 0.96875 v 0.78125 h -0.96875 z" stroke-linecap="round"/>
</g>
		<g transform="matrix(1.3333 0 0 1.3333 -275.0521 300.5937)">
<path style="stroke: none; stroke-width: 1; stroke-dasharray: none; stroke-linecap: butt; stroke-dashoffset: 0; stroke-linejoin: miter; stroke-miterlimit: 4; is-custom-font: none; font-file-url: none; fill: rgb(0,0,0); fill-rule: nonzero; opacity: 1;" transform=" translate(-2.0625, 0.961)" d="m 1.4219 -0.4375 v 1.5781 h -0.96875 v -4.125 h 0.96875 v 0.4375 c 0.125 -0.17578 0.26562 -0.30469 0.42188 -0.39062 c 0.16406 -0.082031 0.35156 -0.125 0.5625 -0.125 c 0.36328 0 0.66406 0.14844 0.90625 0.4375 c 0.23828 0.29297 0.35938 0.66797 0.35938 1.125 c 0 0.46875 -0.12109 0.85156 -0.35938 1.1406 c -0.24219 0.29297 -0.54297 0.4375 -0.90625 0.4375 c -0.21094 0 -0.39844 -0.042969 -0.5625 -0.125 c -0.15625 -0.082031 -0.29688 -0.21094 -0.42188 -0.39062 z m 0.625 -1.9375 c -0.19922 0 -0.35547 0.078125 -0.46875 0.23438 c -0.10547 0.14844 -0.15625 0.35938 -0.15625 0.64062 c 0 0.29297 0.050781 0.51562 0.15625 0.67188 c 0.11328 0.14844 0.26953 0.21875 0.46875 0.21875 c 0.20703 0 0.36328 -0.070313 0.46875 -0.21875 c 0.11328 -0.15625 0.17188 -0.37891 0.17188 -0.67188 c 0 -0.28125 -0.058594 -0.49219 -0.17188 -0.64062 c -0.10547 -0.15625 -0.26172 -0.23438 -0.46875 -0.23438 z" stroke-linecap="round"/>
</g>
		<g transform="matrix(1.3333 0 0 1.3333 -270.25 299.8852)">
<path style="stroke: none; stroke-width: 1; stroke-dasharray: none; stroke-linecap: butt; stroke-dashoffset: 0; stroke-linejoin: miter; stroke-miterlimit: 4; is-custom-font: none; font-file-url: none; fill: rgb(0,0,0); fill-rule: nonzero; opacity: 1;" transform=" translate(-1.7501, 1.4923)" d="m 1.7969 -1.3438 c -0.19922 0 -0.35156 0.039062 -0.45312 0.10938 c -0.09375 0.0625 -0.14062 0.16406 -0.14062 0.29688 c 0 0.11719 0.035156 0.21094 0.10938 0.28125 c 0.082031 0.0625 0.19531 0.09375 0.34375 0.09375 c 0.17578 0 0.32812 -0.0625 0.45312 -0.1875 s 0.1875 -0.28516 0.1875 -0.48438 v -0.10938 z m 1.4688 -0.35938 v 1.7031 h -0.96875 v -0.4375 c -0.125 0.17969 -0.27344 0.30859 -0.4375 0.39062 c -0.15625 0.082031 -0.35156 0.125 -0.57812 0.125 c -0.3125 0 -0.57031 -0.085938 -0.76562 -0.26562 c -0.1875 -0.1875 -0.28125 -0.42188 -0.28125 -0.70312 c 0 -0.35156 0.11719 -0.61328 0.35938 -0.78125 c 0.23828 -0.16406 0.61719 -0.25 1.1406 -0.25 h 0.5625 v -0.0625 c 0 -0.15625 -0.0625 -0.26562 -0.1875 -0.32812 c -0.11719 -0.070312 -0.29688 -0.10938 -0.54688 -0.10938 c -0.21094 0 -0.40234 0.023437 -0.57812 0.0625 c -0.17969 0.042969 -0.33984 0.10156 -0.48438 0.17188 v -0.71875 c 0.19531 -0.050781 0.39844 -0.085938 0.60938 -0.10938 c 0.20703 -0.03125 0.41406 -0.046875 0.625 -0.046875 c 0.53906 0 0.92969 0.10938 1.1719 0.32812 c 0.23828 0.21094 0.35938 0.55469 0.35938 1.0312 z" stroke-linecap="round"/>
</g>
		<g transform="matrix(1.3333 0 0 1.3333 -264.2969 299.8853)">
<path style="stroke: none; stroke-width: 1; stroke-dasharray: none; stroke-linecap: butt; stroke-dashoffset: 0; stroke-linejoin: miter; stroke-miterlimit: 4; is-custom-font: none; font-file-url: none; fill: rgb(0,0,0); fill-rule: nonzero; opacity: 1;" transform=" translate(-2.5234, 1.4922)" d="m 0.1875 -2.9844 h 0.9375 l 0.5 2.0625 l 0.5 -2.0625 h 0.79688 l 0.5 2.0312 l 0.51562 -2.0312 h 0.92188 l -0.78125 2.9844 h -1.0469 l -0.5 -2.0625 l -0.5 2.0625 h -1.0469 z" stroke-linecap="round"/>
</g>
		<g transform="matrix(1.3333 0 0 1.3333 -258.5937 299.8852)">
<path style="stroke: none; stroke-width: 1; stroke-dasharray: none; stroke-linecap: butt; stroke-dashoffset: 0; stroke-linejoin: miter; stroke-miterlimit: 4; is-custom-font: none; font-file-url: none; fill: rgb(0,0,0); fill-rule: nonzero; opacity: 1;" transform=" translate(-1.7501, 1.4923)" d="m 1.7969 -1.3438 c -0.19922 0 -0.35156 0.039062 -0.45312 0.10938 c -0.09375 0.0625 -0.14062 0.16406 -0.14062 0.29688 c 0 0.11719 0.035156 0.21094 0.10938 0.28125 c 0.082031 0.0625 0.19531 0.09375 0.34375 0.09375 c 0.17578 0 0.32812 -0.0625 0.45312 -0.1875 s 0.1875 -0.28516 0.1875 -0.48438 v -0.10938 z m 1.4688 -0.35938 v 1.7031 h -0.96875 v -0.4375 c -0.125 0.17969 -0.27344 0.30859 -0.4375 0.39062 c -0.15625 0.082031 -0.35156 0.125 -0.57812 0.125 c -0.3125 0 -0.57031 -0.085938 -0.76562 -0.26562 c -0.1875 -0.1875 -0.28125 -0.42188 -0.28125 -0.70312 c 0 -0.35156 0.11719 -0.61328 0.35938 -0.78125 c 0.23828 -0.16406 0.61719 -0.25 1.1406 -0.25 h 0.5625 v -0.0625 c 0 -0.15625 -0.0625 -0.26562 -0.1875 -0.32812 c -0.11719 -0.070312 -0.29688 -0.10938 -0.54688 -0.10938 c -0.21094 0 -0.40234 0.023437 -0.57812 0.0625 c -0.17969 0.042969 -0.33984 0.10156 -0.48438 0.17188 v -0.71875 c 0.19531 -0.050781 0.39844 -0.085938 0.60938 -0.10938 c 0.20703 -0.03125 0.41406 -0.046875 0.625 -0.046875 c 0.53906 0 0.92969 0.10938 1.1719 0.32812 c 0.23828 0.21094 0.35938 0.55469 0.35938 1.0312 z" stroke-linecap="round"/>
</g>
		<g transform="matrix(1.3333 0 0 1.3333 -254.2969 299.3124)">
<path style="stroke: none; stroke-width: 1; stroke-dasharray: none; stroke-linecap: butt; stroke-dashoffset: 0; stroke-linejoin: miter; stroke-miterlimit: 4; is-custom-font: none; font-file-url: none; fill: rgb(0,0,0); fill-rule: nonzero; opacity: 1;" transform=" translate(-1.2813, 1.922)" d="m 1.5 -3.8438 v 0.85938 h 0.98438 v 0.67188 h -0.98438 v 1.2812 c 0 0.13672 0.023438 0.23047 0.078125 0.28125 c 0.0625 0.042969 0.17578 0.0625 0.34375 0.0625 h 0.48438 v 0.6875 h -0.8125 c -0.38672 0 -0.65625 -0.078125 -0.8125 -0.23438 s -0.23438 -0.42188 -0.23438 -0.79688 v -1.2812 h -0.46875 v -0.67188 h 0.46875 v -0.85938 z" stroke-linecap="round"/>
</g>
		<g transform="matrix(1.3333 0 0 1.3333 -371.6458 306.3958)">
<path style="stroke: none; stroke-width: 1; stroke-dasharray: none; stroke-linecap: butt; stroke-dashoffset: 0; stroke-linejoin: miter; stroke-miterlimit: 4; is-custom-font: none; font-file-url: none; fill: rgb(0,0,0); fill-rule: nonzero; opacity: 1;" transform=" translate(-1.2657, 2.0781)" d="m 2.4219 -4.1562 v 0.625 h -0.51562 c -0.13672 0 -0.23438 0.027344 -0.29688 0.078125 c -0.054687 0.054687 -0.078125 0.13672 -0.078125 0.25 v 0.21875 h 0.82812 v 0.67188 h -0.82812 v 2.3125 h -0.95312 v -2.3125 h -0.46875 v -0.67188 h 0.46875 v -0.21875 c 0 -0.32031 0.085937 -0.5625 0.26562 -0.71875 c 0.1875 -0.15625 0.47266 -0.23438 0.85938 -0.23438 z" stroke-linecap="round"/>
</g>
		<g transform="matrix(1.3333 0 0 1.3333 -368.0678 307.1249)">
<path style="stroke: none; stroke-width: 1; stroke-dasharray: none; stroke-linecap: butt; stroke-dashoffset: 0; stroke-linejoin: miter; stroke-miterlimit: 4; is-custom-font: none; font-file-url: none; fill: rgb(0,0,0); fill-rule: nonzero; opacity: 1;" transform=" translate(-1.5703, 1.5313)" d="m 2.6875 -2.1719 c -0.085938 -0.039063 -0.16797 -0.070313 -0.25 -0.09375 c -0.085938 -0.019531 -0.16797 -0.03125 -0.25 -0.03125 c -0.25 0 -0.44531 0.085937 -0.57812 0.25 c -0.125 0.15625 -0.1875 0.38281 -0.1875 0.67188 v 1.375 h -0.96875 v -2.9844 h 0.96875 v 0.48438 c 0.11328 -0.19531 0.25 -0.33594 0.40625 -0.42188 c 0.16406 -0.09375 0.35938 -0.14062 0.57812 -0.14062 h 0.10938 c 0.039063 0 0.09375 0.007812 0.15625 0.015625 z" stroke-linecap="round"/>
</g>
		<g transform="matrix(1.3333 0 0 1.3333 -364.0625 307.1771)">
<path style="stroke: none; stroke-width: 1; stroke-dasharray: none; stroke-linecap: butt; stroke-dashoffset: 0; stroke-linejoin: miter; stroke-miterlimit: 4; is-custom-font: none; font-file-url: none; fill: rgb(0,0,0); fill-rule: nonzero; opacity: 1;" transform=" translate(-1.875, 1.4922)" d="m 1.875 -2.375 c -0.21094 0 -0.37109 0.078125 -0.48438 0.23438 c -0.10547 0.14844 -0.15625 0.35938 -0.15625 0.64062 c 0 0.29297 0.050781 0.51562 0.15625 0.67188 c 0.11328 0.14844 0.27344 0.21875 0.48438 0.21875 c 0.20703 0 0.36719 -0.070313 0.48438 -0.21875 c 0.11328 -0.15625 0.17188 -0.37891 0.17188 -0.67188 c 0 -0.28125 -0.058594 -0.49219 -0.17188 -0.64062 c -0.11719 -0.15625 -0.27734 -0.23438 -0.48438 -0.23438 z m 0 -0.6875 c 0.51953 0 0.92188 0.14062 1.2031 0.42188 c 0.28906 0.27344 0.4375 0.65234 0.4375 1.1406 c 0 0.5 -0.14844 0.89062 -0.4375 1.1719 c -0.28125 0.27344 -0.68359 0.40625 -1.2031 0.40625 c -0.51172 0 -0.91406 -0.13281 -1.2031 -0.40625 c -0.29297 -0.28125 -0.4375 -0.67188 -0.4375 -1.1719 c 0 -0.48828 0.14453 -0.86719 0.4375 -1.1406 c 0.28906 -0.28125 0.69141 -0.42188 1.2031 -0.42188 z" stroke-linecap="round"/>
</g>
		<g transform="matrix(1.3333 0 0 1.3333 -357.7449 307.125)">
<path style="stroke: none; stroke-width: 1; stroke-dasharray: none; stroke-linecap: butt; stroke-dashoffset: 0; stroke-linejoin: miter; stroke-miterlimit: 4; is-custom-font: none; font-file-url: none; fill: rgb(0,0,0); fill-rule: nonzero; opacity: 1;" transform=" translate(-2.8594, 1.5312)" d="m 3.2344 -2.5 c 0.11328 -0.17578 0.25391 -0.3125 0.42188 -0.40625 c 0.16406 -0.10156 0.35156 -0.15625 0.5625 -0.15625 c 0.33203 0 0.58594 0.10938 0.76562 0.32812 c 0.1875 0.21094 0.28125 0.51172 0.28125 0.90625 v 1.8281 h -0.96875 v -1.5625 c 0.007813 -0.019531 0.015625 -0.039062 0.015625 -0.0625 v -0.10938 c 0 -0.21875 -0.03125 -0.375 -0.09375 -0.46875 s -0.16406 -0.14062 -0.29688 -0.14062 c -0.1875 0 -0.33594 0.078125 -0.4375 0.23438 c -0.09375 0.14844 -0.14062 0.35938 -0.14062 0.64062 v 1.4688 h -0.96875 v -1.5625 c 0 -0.33203 -0.03125 -0.54688 -0.09375 -0.64062 c -0.054688 -0.09375 -0.15234 -0.14062 -0.29688 -0.14062 c -0.17969 0 -0.32031 0.078125 -0.42188 0.23438 c -0.09375 0.14844 -0.14062 0.35938 -0.14062 0.64062 v 1.4688 h -0.96875 v -2.9844 h 0.96875 v 0.4375 c 0.11328 -0.17578 0.24219 -0.30469 0.39062 -0.39062 c 0.15625 -0.082031 0.32812 -0.125 0.51562 -0.125 c 0.20703 0 0.39062 0.054688 0.54688 0.15625 c 0.15625 0.09375 0.27344 0.23047 0.35938 0.40625 z" stroke-linecap="round"/>
</g>
		<g transform="matrix(1.3333 0 0 1.3333 -349.7084 306.604)">
<path style="stroke: none; stroke-width: 1; stroke-dasharray: none; stroke-linecap: butt; stroke-dashoffset: 0; stroke-linejoin: miter; stroke-miterlimit: 4; is-custom-font: none; font-file-url: none; fill: rgb(0,0,0); fill-rule: nonzero; opacity: 1;" transform=" translate(-1.2813, 1.922)" d="m 1.5 -3.8438 v 0.85938 h 0.98438 v 0.67188 h -0.98438 v 1.2812 c 0 0.13672 0.023438 0.23047 0.078125 0.28125 c 0.0625 0.042969 0.17578 0.0625 0.34375 0.0625 h 0.48438 v 0.6875 h -0.8125 c -0.38672 0 -0.65625 -0.078125 -0.8125 -0.23438 s -0.23438 -0.42188 -0.23438 -0.79688 v -1.2812 h -0.46875 v -0.67188 h 0.46875 v -0.85938 z" stroke-linecap="round"/>
</g>
		<g transform="matrix(1.3333 0 0 1.3333 -345.3177 306.3959)">
<path style="stroke: none; stroke-width: 1; stroke-dasharray: none; stroke-linecap: butt; stroke-dashoffset: 0; stroke-linejoin: miter; stroke-miterlimit: 4; is-custom-font: none; font-file-url: none; fill: rgb(0,0,0); fill-rule: nonzero; opacity: 1;" transform=" translate(-1.961, 2.078)" d="m 3.4688 -1.8281 v 1.8281 h -0.96875 v -1.3906 c 0 -0.25781 -0.007812 -0.4375 -0.015625 -0.53125 c -0.011719 -0.10156 -0.03125 -0.17578 -0.0625 -0.21875 c -0.03125 -0.0625 -0.085937 -0.10938 -0.15625 -0.14062 c -0.0625 -0.039062 -0.13281 -0.0625 -0.20312 -0.0625 c -0.21094 0 -0.37109 0.078125 -0.48438 0.23438 c -0.10547 0.15625 -0.15625 0.37109 -0.15625 0.64062 v 1.4688 h -0.96875 v -4.1562 h 0.96875 v 1.6094 c 0.13281 -0.17578 0.28516 -0.30469 0.45312 -0.39062 c 0.16406 -0.082031 0.34375 -0.125 0.53125 -0.125 c 0.34375 0 0.60156 0.10938 0.78125 0.32812 c 0.1875 0.21094 0.28125 0.51172 0.28125 0.90625 z" stroke-linecap="round"/>
</g>
		<g transform="matrix(1.3333 0 0 1.3333 -340.297 307.177)">
<path style="stroke: none; stroke-width: 1; stroke-dasharray: none; stroke-linecap: butt; stroke-dashoffset: 0; stroke-linejoin: miter; stroke-miterlimit: 4; is-custom-font: none; font-file-url: none; fill: rgb(0,0,0); fill-rule: nonzero; opacity: 1;" transform=" translate(-1.836, 1.4922)" d="m 3.4375 -1.5 v 0.26562 h -2.2344 c 0.03125 0.23047 0.11328 0.40234 0.25 0.51562 c 0.13281 0.10547 0.32812 0.15625 0.57812 0.15625 c 0.20703 0 0.41406 -0.023438 0.625 -0.078125 c 0.20703 -0.0625 0.42188 -0.15625 0.64062 -0.28125 v 0.73438 c -0.21875 0.09375 -0.44531 0.16406 -0.67188 0.20312 c -0.23047 0.039062 -0.45312 0.0625 -0.67188 0.0625 c -0.54297 0 -0.96484 -0.13281 -1.2656 -0.40625 c -0.30469 -0.28125 -0.45312 -0.67188 -0.45312 -1.1719 c 0 -0.47656 0.14453 -0.85938 0.4375 -1.1406 c 0.30078 -0.28125 0.70703 -0.42188 1.2188 -0.42188 c 0.46875 0 0.84375 0.14062 1.125 0.42188 s 0.42188 0.66406 0.42188 1.1406 z m -0.96875 -0.32812 c 0 -0.17578 -0.058594 -0.31641 -0.17188 -0.42188 c -0.10547 -0.11328 -0.24219 -0.17188 -0.40625 -0.17188 c -0.1875 0 -0.33984 0.054687 -0.45312 0.15625 c -0.11719 0.10547 -0.1875 0.25 -0.21875 0.4375 z" stroke-linecap="round"/>
</g>
		<g transform="matrix(1.3333 0 0 1.3333 -332.2084 306.5104)">
<path style="stroke: none; stroke-width: 1; stroke-dasharray: none; stroke-linecap: butt; stroke-dashoffset: 0; stroke-linejoin: miter; stroke-miterlimit: 4; is-custom-font: none; font-file-url: none; fill: rgb(0,0,0); fill-rule: nonzero; opacity: 1;" transform=" translate(-2.289, 1.9922)" d="m 0.5 -3.9844 h 1.1562 l 1.4375 2.7344 v -2.7344 h 0.98438 v 3.9844 h -1.1562 l -1.4375 -2.7344 v 2.7344 h -0.98438 z" stroke-linecap="round"/>
</g>
		<g transform="matrix(1.3333 0 0 1.3333 -326.6563 307.1771)">
<path style="stroke: none; stroke-width: 1; stroke-dasharray: none; stroke-linecap: butt; stroke-dashoffset: 0; stroke-linejoin: miter; stroke-miterlimit: 4; is-custom-font: none; font-file-url: none; fill: rgb(0,0,0); fill-rule: nonzero; opacity: 1;" transform=" translate(-1.875, 1.4922)" d="m 1.875 -2.375 c -0.21094 0 -0.37109 0.078125 -0.48438 0.23438 c -0.10547 0.14844 -0.15625 0.35938 -0.15625 0.64062 c 0 0.29297 0.050781 0.51562 0.15625 0.67188 c 0.11328 0.14844 0.27344 0.21875 0.48438 0.21875 c 0.20703 0 0.36719 -0.070313 0.48438 -0.21875 c 0.11328 -0.15625 0.17188 -0.37891 0.17188 -0.67188 c 0 -0.28125 -0.058594 -0.49219 -0.17188 -0.64062 c -0.11719 -0.15625 -0.27734 -0.23438 -0.48438 -0.23438 z m 0 -0.6875 c 0.51953 0 0.92188 0.14062 1.2031 0.42188 c 0.28906 0.27344 0.4375 0.65234 0.4375 1.1406 c 0 0.5 -0.14844 0.89062 -0.4375 1.1719 c -0.28125 0.27344 -0.68359 0.40625 -1.2031 0.40625 c -0.51172 0 -0.91406 -0.13281 -1.2031 -0.40625 c -0.29297 -0.28125 -0.4375 -0.67188 -0.4375 -1.1719 c 0 -0.48828 0.14453 -0.86719 0.4375 -1.1406 c 0.28906 -0.28125 0.69141 -0.42188 1.2031 -0.42188 z" stroke-linecap="round"/>
</g>
		<g transform="matrix(1.3333 0 0 1.3333 -321.573 307.2291)">
<path style="stroke: none; stroke-width: 1; stroke-dasharray: none; stroke-linecap: butt; stroke-dashoffset: 0; stroke-linejoin: miter; stroke-miterlimit: 4; is-custom-font: none; font-file-url: none; fill: rgb(0,0,0); fill-rule: nonzero; opacity: 1;" transform=" translate(-1.9297, 1.4532)" d="m 0.42188 -1.1719 v -1.8125 h 0.96875 v 0.29688 v 0.60938 v 0.48438 c 0 0.24219 0.003906 0.41797 0.015625 0.53125 c 0.007812 0.10547 0.03125 0.17969 0.0625 0.21875 c 0.039062 0.0625 0.09375 0.11719 0.15625 0.15625 c 0.0625 0.03125 0.13281 0.046875 0.21875 0.046875 c 0.19531 0 0.35156 -0.078125 0.46875 -0.23438 c 0.11328 -0.15625 0.17188 -0.36719 0.17188 -0.64062 v -1.4688 h 0.95312 v 2.9844 h -0.95312 v -0.4375 c -0.14844 0.17969 -0.30469 0.30859 -0.46875 0.39062 c -0.15625 0.082031 -0.33594 0.125 -0.53125 0.125 c -0.34375 0 -0.60938 -0.10156 -0.79688 -0.3125 c -0.17969 -0.21875 -0.26562 -0.53125 -0.26562 -0.9375 z" stroke-linecap="round"/>
</g>
		<g transform="matrix(1.3333 0 0 1.3333 -316.3386 307.125)">
<path style="stroke: none; stroke-width: 1; stroke-dasharray: none; stroke-linecap: butt; stroke-dashoffset: 0; stroke-linejoin: miter; stroke-miterlimit: 4; is-custom-font: none; font-file-url: none; fill: rgb(0,0,0); fill-rule: nonzero; opacity: 1;" transform=" translate(-1.961, 1.5312)" d="m 3.4688 -1.8281 v 1.8281 h -0.96875 v -1.3906 c 0 -0.25781 -0.007812 -0.4375 -0.015625 -0.53125 c -0.011719 -0.10156 -0.03125 -0.17578 -0.0625 -0.21875 c -0.03125 -0.0625 -0.085937 -0.10938 -0.15625 -0.14062 c -0.0625 -0.039062 -0.13281 -0.0625 -0.20312 -0.0625 c -0.21094 0 -0.37109 0.078125 -0.48438 0.23438 c -0.10547 0.15625 -0.15625 0.37109 -0.15625 0.64062 v 1.4688 h -0.96875 v -2.9844 h 0.96875 v 0.4375 c 0.13281 -0.17578 0.28516 -0.30469 0.45312 -0.39062 c 0.16406 -0.082031 0.34375 -0.125 0.53125 -0.125 c 0.34375 0 0.60156 0.10938 0.78125 0.32812 c 0.1875 0.21094 0.28125 0.51172 0.28125 0.90625 z" stroke-linecap="round"/>
</g>
		<g transform="matrix(1.3333 0 0 1.3333 -308.3699 306.5103)">
<path style="stroke: none; stroke-width: 1; stroke-dasharray: none; stroke-linecap: butt; stroke-dashoffset: 0; stroke-linejoin: miter; stroke-miterlimit: 4; is-custom-font: none; font-file-url: none; fill: rgb(0,0,0); fill-rule: nonzero; opacity: 1;" transform=" translate(-2.1406, 1.9922)" d="m 0.5 -3.9844 h 1.7031 c 0.50781 0 0.89844 0.11719 1.1719 0.34375 c 0.26953 0.21875 0.40625 0.53906 0.40625 0.95312 c 0 0.41797 -0.13672 0.74219 -0.40625 0.96875 c -0.27344 0.21875 -0.66406 0.32812 -1.1719 0.32812 h -0.67188 v 1.3906 h -1.0312 z m 1.0312 0.75 v 1.1094 h 0.5625 c 0.19531 0 0.34766 -0.046875 0.45312 -0.14062 c 0.11328 -0.10156 0.17188 -0.24219 0.17188 -0.42188 c 0 -0.17578 -0.058594 -0.3125 -0.17188 -0.40625 c -0.10547 -0.09375 -0.25781 -0.14062 -0.45312 -0.14062 z" stroke-linecap="round"/>
</g>
		<g transform="matrix(1.3333 0 0 1.3333 -303.7865 307.1249)">
<path style="stroke: none; stroke-width: 1; stroke-dasharray: none; stroke-linecap: butt; stroke-dashoffset: 0; stroke-linejoin: miter; stroke-miterlimit: 4; is-custom-font: none; font-file-url: none; fill: rgb(0,0,0); fill-rule: nonzero; opacity: 1;" transform=" translate(-1.5703, 1.5313)" d="m 2.6875 -2.1719 c -0.085938 -0.039063 -0.16797 -0.070313 -0.25 -0.09375 c -0.085938 -0.019531 -0.16797 -0.03125 -0.25 -0.03125 c -0.25 0 -0.44531 0.085937 -0.57812 0.25 c -0.125 0.15625 -0.1875 0.38281 -0.1875 0.67188 v 1.375 h -0.96875 v -2.9844 h 0.96875 v 0.48438 c 0.11328 -0.19531 0.25 -0.33594 0.40625 -0.42188 c 0.16406 -0.09375 0.35938 -0.14062 0.57812 -0.14062 h 0.10938 c 0.039063 0 0.09375 0.007812 0.15625 0.015625 z" stroke-linecap="round"/>
</g>
		<g transform="matrix(1.3333 0 0 1.3333 -299.7865 307.1771)">
<path style="stroke: none; stroke-width: 1; stroke-dasharray: none; stroke-linecap: butt; stroke-dashoffset: 0; stroke-linejoin: miter; stroke-miterlimit: 4; is-custom-font: none; font-file-url: none; fill: rgb(0,0,0); fill-rule: nonzero; opacity: 1;" transform=" translate(-1.875, 1.4922)" d="m 1.875 -2.375 c -0.21094 0 -0.37109 0.078125 -0.48438 0.23438 c -0.10547 0.14844 -0.15625 0.35938 -0.15625 0.64062 c 0 0.29297 0.050781 0.51562 0.15625 0.67188 c 0.11328 0.14844 0.27344 0.21875 0.48438 0.21875 c 0.20703 0 0.36719 -0.070313 0.48438 -0.21875 c 0.11328 -0.15625 0.17188 -0.37891 0.17188 -0.67188 c 0 -0.28125 -0.058594 -0.49219 -0.17188 -0.64062 c -0.11719 -0.15625 -0.27734 -0.23438 -0.48438 -0.23438 z m 0 -0.6875 c 0.51953 0 0.92188 0.14062 1.2031 0.42188 c 0.28906 0.27344 0.4375 0.65234 0.4375 1.1406 c 0 0.5 -0.14844 0.89062 -0.4375 1.1719 c -0.28125 0.27344 -0.68359 0.40625 -1.2031 0.40625 c -0.51172 0 -0.91406 -0.13281 -1.2031 -0.40625 c -0.29297 -0.28125 -0.4375 -0.67188 -0.4375 -1.1719 c 0 -0.48828 0.14453 -0.86719 0.4375 -1.1406 c 0.28906 -0.28125 0.69141 -0.42188 1.2031 -0.42188 z" stroke-linecap="round"/>
</g>
		<g transform="matrix(1.3333 0 0 1.3333 -296.4532 307.1874)">
<path style="stroke: none; stroke-width: 1; stroke-dasharray: none; stroke-linecap: butt; stroke-dashoffset: 0; stroke-linejoin: miter; stroke-miterlimit: 4; is-custom-font: none; font-file-url: none; fill: rgb(0,0,0); fill-rule: nonzero; opacity: 1;" transform=" translate(-0.6172, 1.4844)" d="m 0.45312 -2.9844 h 0.96875 v 2.9375 c 0 0.39453 -0.10156 0.69531 -0.29688 0.90625 c -0.1875 0.21875 -0.46484 0.32812 -0.82812 0.32812 h -0.48438 v -0.64062 h 0.17188 c 0.17578 0 0.29688 -0.042969 0.35938 -0.125 c 0.070312 -0.074219 0.10938 -0.23047 0.10938 -0.46875 z m 0 -1.1719 h 0.96875 v 0.78125 h -0.96875 z" stroke-linecap="round"/>
</g>
		<g transform="matrix(1.3333 0 0 1.3333 -292.3282 307.177)">
<path style="stroke: none; stroke-width: 1; stroke-dasharray: none; stroke-linecap: butt; stroke-dashoffset: 0; stroke-linejoin: miter; stroke-miterlimit: 4; is-custom-font: none; font-file-url: none; fill: rgb(0,0,0); fill-rule: nonzero; opacity: 1;" transform=" translate(-1.836, 1.4922)" d="m 3.4375 -1.5 v 0.26562 h -2.2344 c 0.03125 0.23047 0.11328 0.40234 0.25 0.51562 c 0.13281 0.10547 0.32812 0.15625 0.57812 0.15625 c 0.20703 0 0.41406 -0.023438 0.625 -0.078125 c 0.20703 -0.0625 0.42188 -0.15625 0.64062 -0.28125 v 0.73438 c -0.21875 0.09375 -0.44531 0.16406 -0.67188 0.20312 c -0.23047 0.039062 -0.45312 0.0625 -0.67188 0.0625 c -0.54297 0 -0.96484 -0.13281 -1.2656 -0.40625 c -0.30469 -0.28125 -0.45312 -0.67188 -0.45312 -1.1719 c 0 -0.47656 0.14453 -0.85938 0.4375 -1.1406 c 0.30078 -0.28125 0.70703 -0.42188 1.2188 -0.42188 c 0.46875 0 0.84375 0.14062 1.125 0.42188 s 0.42188 0.66406 0.42188 1.1406 z m -0.96875 -0.32812 c 0 -0.17578 -0.058594 -0.31641 -0.17188 -0.42188 c -0.10547 -0.11328 -0.24219 -0.17188 -0.40625 -0.17188 c -0.1875 0 -0.33984 0.054687 -0.45312 0.15625 c -0.11719 0.10547 -0.1875 0.25 -0.21875 0.4375 z" stroke-linecap="round"/>
</g>
		<g transform="matrix(1.3333 0 0 1.3333 -287.7604 307.1771)">
<path style="stroke: none; stroke-width: 1; stroke-dasharray: none; stroke-linecap: butt; stroke-dashoffset: 0; stroke-linejoin: miter; stroke-miterlimit: 4; is-custom-font: none; font-file-url: none; fill: rgb(0,0,0); fill-rule: nonzero; opacity: 1;" transform=" translate(-1.5547, 1.4922)" d="m 2.875 -2.8906 v 0.76562 c -0.125 -0.082031 -0.25781 -0.14453 -0.39062 -0.1875 c -0.13672 -0.039062 -0.27344 -0.0625 -0.40625 -0.0625 c -0.27344 0 -0.48047 0.078125 -0.625 0.23438 c -0.14844 0.15625 -0.21875 0.37109 -0.21875 0.64062 c 0 0.28125 0.070313 0.5 0.21875 0.65625 c 0.14453 0.15625 0.35156 0.23438 0.625 0.23438 c 0.14453 0 0.28516 -0.019531 0.42188 -0.0625 c 0.13281 -0.039063 0.25781 -0.10938 0.375 -0.20312 v 0.78125 c -0.14844 0.0625 -0.29688 0.10156 -0.45312 0.125 c -0.15625 0.03125 -0.3125 0.046875 -0.46875 0.046875 c -0.54297 0 -0.96484 -0.13281 -1.2656 -0.40625 c -0.30469 -0.28125 -0.45312 -0.67188 -0.45312 -1.1719 c 0 -0.48828 0.14844 -0.86719 0.45312 -1.1406 c 0.30078 -0.28125 0.72266 -0.42188 1.2656 -0.42188 c 0.15625 0 0.3125 0.015625 0.46875 0.046875 c 0.15625 0.023437 0.30469 0.0625 0.45312 0.125 z" stroke-linecap="round"/>
</g>
		<g transform="matrix(1.3333 0 0 1.3333 -283.8021 306.604)">
<path style="stroke: none; stroke-width: 1; stroke-dasharray: none; stroke-linecap: butt; stroke-dashoffset: 0; stroke-linejoin: miter; stroke-miterlimit: 4; is-custom-font: none; font-file-url: none; fill: rgb(0,0,0); fill-rule: nonzero; opacity: 1;" transform=" translate(-1.2813, 1.922)" d="m 1.5 -3.8438 v 0.85938 h 0.98438 v 0.67188 h -0.98438 v 1.2812 c 0 0.13672 0.023438 0.23047 0.078125 0.28125 c 0.0625 0.042969 0.17578 0.0625 0.34375 0.0625 h 0.48438 v 0.6875 h -0.8125 c -0.38672 0 -0.65625 -0.078125 -0.8125 -0.23438 s -0.23438 -0.42188 -0.23438 -0.79688 v -1.2812 h -0.46875 v -0.67188 h 0.46875 v -0.85938 z" stroke-linecap="round"/>
</g>
</g>
</g>
</svg>