<?xml version="1.0" encoding="UTF-8"?>
<svg width="700pt" height="700pt" version="1.1" viewBox="0 0 700 700" xmlns="http://www.w3.org/2000/svg" xmlns:xlink="http://www.w3.org/1999/xlink">
 <defs>
  <symbol id="x" overflow="visible">
   <path d="m3.6562-0.21875c-0.1875 0.09375-0.38672 0.16797-0.59375 0.21875-0.19922 0.050781-0.40625 0.078125-0.625 0.078125-0.66797 0-1.1992-0.17969-1.5938-0.54688-0.38672-0.375-0.57812-0.87891-0.57812-1.5156 0-0.64453 0.19141-1.1484 0.57812-1.5156 0.39453-0.375 0.92578-0.5625 1.5938-0.5625 0.21875 0 0.42578 0.027344 0.625 0.078125 0.20703 0.054687 0.40625 0.125 0.59375 0.21875v0.82812c-0.1875-0.125-0.375-0.21875-0.5625-0.28125-0.17969-0.0625-0.37109-0.09375-0.57812-0.09375-0.36719 0-0.65625 0.12109-0.875 0.35938-0.21094 0.23047-0.3125 0.55469-0.3125 0.96875 0 0.40625 0.10156 0.73047 0.3125 0.96875 0.21875 0.23047 0.50781 0.34375 0.875 0.34375 0.20703 0 0.39844-0.023437 0.57812-0.078125 0.1875-0.0625 0.375-0.16016 0.5625-0.29688z"/>
  </symbol>
  <symbol id="d" overflow="visible">
   <path d="m2.6875-2.1719c-0.085938-0.039063-0.16797-0.070313-0.25-0.09375-0.085938-0.019531-0.16797-0.03125-0.25-0.03125-0.25 0-0.44531 0.085937-0.57812 0.25-0.125 0.15625-0.1875 0.38281-0.1875 0.67188v1.375h-0.96875v-2.9844h0.96875v0.48438c0.11328-0.19531 0.25-0.33594 0.40625-0.42188 0.16406-0.09375 0.35938-0.14062 0.57812-0.14062h0.10938c0.039063 0 0.09375 0.007812 0.15625 0.015625z"/>
  </symbol>
  <symbol id="b" overflow="visible">
   <path d="m3.4375-1.5v0.26562h-2.2344c0.03125 0.23047 0.11328 0.40234 0.25 0.51562 0.13281 0.10547 0.32812 0.15625 0.57812 0.15625 0.20703 0 0.41406-0.023438 0.625-0.078125 0.20703-0.0625 0.42188-0.15625 0.64062-0.28125v0.73438c-0.21875 0.09375-0.44531 0.16406-0.67188 0.20312-0.23047 0.039062-0.45312 0.0625-0.67188 0.0625-0.54297 0-0.96484-0.13281-1.2656-0.40625-0.30469-0.28125-0.45312-0.67188-0.45312-1.1719 0-0.47656 0.14453-0.85938 0.4375-1.1406 0.30078-0.28125 0.70703-0.42188 1.2188-0.42188 0.46875 0 0.84375 0.14062 1.125 0.42188s0.42188 0.66406 0.42188 1.1406zm-0.96875-0.32812c0-0.17578-0.058594-0.31641-0.17188-0.42188-0.10547-0.11328-0.24219-0.17188-0.40625-0.17188-0.1875 0-0.33984 0.054687-0.45312 0.15625-0.11719 0.10547-0.1875 0.25-0.21875 0.4375z"/>
  </symbol>
  <symbol id="a" overflow="visible">
   <path d="m1.7969-1.3438c-0.19922 0-0.35156 0.039062-0.45312 0.10938-0.09375 0.0625-0.14062 0.16406-0.14062 0.29688 0 0.11719 0.035156 0.21094 0.10938 0.28125 0.082031 0.0625 0.19531 0.09375 0.34375 0.09375 0.17578 0 0.32812-0.0625 0.45312-0.1875s0.1875-0.28516 0.1875-0.48438v-0.10938zm1.4688-0.35938v1.7031h-0.96875v-0.4375c-0.125 0.17969-0.27344 0.30859-0.4375 0.39062-0.15625 0.082031-0.35156 0.125-0.57812 0.125-0.3125 0-0.57031-0.085938-0.76562-0.26562-0.1875-0.1875-0.28125-0.42188-0.28125-0.70312 0-0.35156 0.11719-0.61328 0.35938-0.78125 0.23828-0.16406 0.61719-0.25 1.1406-0.25h0.5625v-0.0625c0-0.15625-0.0625-0.26562-0.1875-0.32812-0.11719-0.070312-0.29688-0.10938-0.54688-0.10938-0.21094 0-0.40234 0.023437-0.57812 0.0625-0.17969 0.042969-0.33984 0.10156-0.48438 0.17188v-0.71875c0.19531-0.050781 0.39844-0.085938 0.60938-0.10938 0.20703-0.03125 0.41406-0.046875 0.625-0.046875 0.53906 0 0.92969 0.10938 1.1719 0.32812 0.23828 0.21094 0.35938 0.55469 0.35938 1.0312z"/>
  </symbol>
  <symbol id="c" overflow="visible">
   <path d="m1.5-3.8438v0.85938h0.98438v0.67188h-0.98438v1.2812c0 0.13672 0.023438 0.23047 0.078125 0.28125 0.0625 0.042969 0.17578 0.0625 0.34375 0.0625h0.48438v0.6875h-0.8125c-0.38672 0-0.65625-0.078125-0.8125-0.23438s-0.23438-0.42188-0.23438-0.79688v-1.2812h-0.46875v-0.67188h0.46875v-0.85938z"/>
  </symbol>
  <symbol id="l" overflow="visible">
   <path d="m2.5-2.5469v-1.6094h0.95312v4.1562h-0.95312v-0.4375c-0.13672 0.17969-0.28125 0.30859-0.4375 0.39062-0.15625 0.082031-0.33984 0.125-0.54688 0.125-0.375 0-0.68359-0.14453-0.92188-0.4375-0.23047-0.28906-0.34375-0.67188-0.34375-1.1406 0-0.45703 0.11328-0.83203 0.34375-1.125 0.23828-0.28906 0.54688-0.4375 0.92188-0.4375 0.19531 0 0.375 0.042969 0.53125 0.125 0.16406 0.085938 0.31641 0.21484 0.45312 0.39062zm-0.64062 1.9375c0.20703 0 0.36328-0.070313 0.46875-0.21875 0.11328-0.15625 0.17188-0.37891 0.17188-0.67188 0-0.28125-0.058594-0.49219-0.17188-0.64062-0.10547-0.15625-0.26172-0.23438-0.46875-0.23438-0.19922 0-0.35547 0.078125-0.46875 0.23438-0.10547 0.14844-0.15625 0.35938-0.15625 0.64062 0 0.29297 0.050781 0.51562 0.15625 0.67188 0.11328 0.14844 0.26953 0.21875 0.46875 0.21875z"/>
  </symbol>
  <symbol id="k" overflow="visible">
   <path d="m2.0469-0.60938c0.20703 0 0.36328-0.070313 0.46875-0.21875 0.11328-0.15625 0.17188-0.37891 0.17188-0.67188 0-0.28125-0.058594-0.49219-0.17188-0.64062-0.10547-0.15625-0.26172-0.23438-0.46875-0.23438-0.19922 0-0.35547 0.078125-0.46875 0.23438-0.10547 0.14844-0.15625 0.35938-0.15625 0.64062 0 0.29297 0.050781 0.51562 0.15625 0.67188 0.11328 0.14844 0.26953 0.21875 0.46875 0.21875zm-0.625-1.9375c0.125-0.17578 0.26562-0.30469 0.42188-0.39062 0.16406-0.082031 0.35156-0.125 0.5625-0.125 0.36328 0 0.66406 0.14844 0.90625 0.4375 0.23828 0.29297 0.35938 0.66797 0.35938 1.125 0 0.46875-0.12109 0.85156-0.35938 1.1406-0.24219 0.29297-0.54297 0.4375-0.90625 0.4375-0.21094 0-0.39844-0.042969-0.5625-0.125-0.15625-0.082031-0.29688-0.21094-0.42188-0.39062v0.4375h-0.96875v-4.1562h0.96875z"/>
  </symbol>
  <symbol id="j" overflow="visible">
   <path d="m0.0625-2.9844h0.95312l0.8125 2.0156 0.6875-2.0156h0.95312l-1.2656 3.2656c-0.125 0.33203-0.27344 0.56641-0.4375 0.70312-0.16797 0.13281-0.39062 0.20312-0.67188 0.20312h-0.54688v-0.64062h0.29688c0.16406 0 0.28516-0.027344 0.35938-0.078125 0.070313-0.054688 0.12891-0.14062 0.17188-0.26562l0.03125-0.09375z"/>
  </symbol>
  <symbol id="i" overflow="visible">
   <path d="m2.7969-2.8906v0.71875c-0.21094-0.082031-0.40625-0.14453-0.59375-0.1875-0.1875-0.039063-0.37109-0.0625-0.54688-0.0625-0.17969 0-0.3125 0.023437-0.40625 0.0625-0.085938 0.042969-0.125 0.10938-0.125 0.20312 0 0.085938 0.03125 0.14844 0.09375 0.1875 0.070312 0.042969 0.19531 0.074219 0.375 0.09375l0.15625 0.015625c0.48828 0.0625 0.81641 0.16797 0.98438 0.3125 0.17578 0.13672 0.26562 0.35938 0.26562 0.67188s-0.12109 0.55469-0.35938 0.71875c-0.23047 0.15625-0.57812 0.23438-1.0469 0.23438-0.19922 0-0.40625-0.015625-0.625-0.046875-0.21094-0.03125-0.42188-0.078125-0.64062-0.14062v-0.71875c0.1875 0.085937 0.37891 0.15234 0.57812 0.20312 0.20703 0.042969 0.41406 0.0625 0.625 0.0625 0.1875 0 0.32812-0.023438 0.42188-0.078125 0.09375-0.050781 0.14062-0.125 0.14062-0.21875s-0.039062-0.16016-0.10938-0.20312c-0.0625-0.039062-0.1875-0.070312-0.375-0.09375l-0.17188-0.015625c-0.42969-0.050781-0.73047-0.14844-0.90625-0.29688-0.16797-0.14453-0.25-0.36328-0.25-0.65625 0-0.32031 0.10938-0.55469 0.32812-0.70312 0.21875-0.15625 0.55078-0.23438 1-0.23438 0.17578 0 0.35938 0.015625 0.54688 0.046875 0.19531 0.023437 0.41016 0.0625 0.64062 0.125z"/>
  </symbol>
  <symbol id="h" overflow="visible">
   <path d="m0.42188-1.1719v-1.8125h0.96875v0.29688 0.60938 0.48438c0 0.24219 0.003906 0.41797 0.015625 0.53125 0.007812 0.10547 0.03125 0.17969 0.0625 0.21875 0.039062 0.0625 0.09375 0.11719 0.15625 0.15625 0.0625 0.03125 0.13281 0.046875 0.21875 0.046875 0.19531 0 0.35156-0.078125 0.46875-0.23438 0.11328-0.15625 0.17188-0.36719 0.17188-0.64062v-1.4688h0.95312v2.9844h-0.95312v-0.4375c-0.14844 0.17969-0.30469 0.30859-0.46875 0.39062-0.15625 0.082031-0.33594 0.125-0.53125 0.125-0.34375 0-0.60938-0.10156-0.79688-0.3125-0.17969-0.21875-0.26562-0.53125-0.26562-0.9375z"/>
  </symbol>
  <symbol id="g" overflow="visible">
   <path d="m1.4219-0.4375v1.5781h-0.96875v-4.125h0.96875v0.4375c0.125-0.17578 0.26562-0.30469 0.42188-0.39062 0.16406-0.082031 0.35156-0.125 0.5625-0.125 0.36328 0 0.66406 0.14844 0.90625 0.4375 0.23828 0.29297 0.35938 0.66797 0.35938 1.125 0 0.46875-0.12109 0.85156-0.35938 1.1406-0.24219 0.29297-0.54297 0.4375-0.90625 0.4375-0.21094 0-0.39844-0.042969-0.5625-0.125-0.15625-0.082031-0.29688-0.21094-0.42188-0.39062zm0.625-1.9375c-0.19922 0-0.35547 0.078125-0.46875 0.23438-0.10547 0.14844-0.15625 0.35938-0.15625 0.64062 0 0.29297 0.050781 0.51562 0.15625 0.67188 0.11328 0.14844 0.26953 0.21875 0.46875 0.21875 0.20703 0 0.36328-0.070313 0.46875-0.21875 0.11328-0.15625 0.17188-0.37891 0.17188-0.67188 0-0.28125-0.058594-0.49219-0.17188-0.64062-0.10547-0.15625-0.26172-0.23438-0.46875-0.23438z"/>
  </symbol>
  <symbol id="f" overflow="visible">
   <path d="m0.45312-4.1562h0.96875v4.1562h-0.96875z"/>
  </symbol>
  <symbol id="w" overflow="visible">
   <path d="m0.45312-4.1562h0.96875v2.2656l1.0938-1.0938h1.1094l-1.4531 1.3594 1.5625 1.625h-1.1562l-1.1562-1.25v1.25h-0.96875z"/>
  </symbol>
  <symbol id="v" overflow="visible">
   <path d="m0.45312-2.9844h0.96875v2.9844h-0.96875zm0-1.1719h0.96875v0.78125h-0.96875z"/>
  </symbol>
  <symbol id="u" overflow="visible">
   <path d="m0.1875-2.9844h0.9375l0.5 2.0625 0.5-2.0625h0.79688l0.5 2.0312 0.51562-2.0312h0.92188l-0.78125 2.9844h-1.0469l-0.5-2.0625-0.5 2.0625h-1.0469z"/>
  </symbol>
  <symbol id="t" overflow="visible">
   <path d="m2.4219-4.1562v0.625h-0.51562c-0.13672 0-0.23438 0.027344-0.29688 0.078125-0.054687 0.054687-0.078125 0.13672-0.078125 0.25v0.21875h0.82812v0.67188h-0.82812v2.3125h-0.95312v-2.3125h-0.46875v-0.67188h0.46875v-0.21875c0-0.32031 0.085937-0.5625 0.26562-0.71875 0.1875-0.15625 0.47266-0.23438 0.85938-0.23438z"/>
  </symbol>
  <symbol id="e" overflow="visible">
   <path d="m1.875-2.375c-0.21094 0-0.37109 0.078125-0.48438 0.23438-0.10547 0.14844-0.15625 0.35938-0.15625 0.64062 0 0.29297 0.050781 0.51562 0.15625 0.67188 0.11328 0.14844 0.27344 0.21875 0.48438 0.21875 0.20703 0 0.36719-0.070313 0.48438-0.21875 0.11328-0.15625 0.17188-0.37891 0.17188-0.67188 0-0.28125-0.058594-0.49219-0.17188-0.64062-0.11719-0.15625-0.27734-0.23438-0.48438-0.23438zm0-0.6875c0.51953 0 0.92188 0.14062 1.2031 0.42188 0.28906 0.27344 0.4375 0.65234 0.4375 1.1406 0 0.5-0.14844 0.89062-0.4375 1.1719-0.28125 0.27344-0.68359 0.40625-1.2031 0.40625-0.51172 0-0.91406-0.13281-1.2031-0.40625-0.29297-0.28125-0.4375-0.67188-0.4375-1.1719 0-0.48828 0.14453-0.86719 0.4375-1.1406 0.28906-0.28125 0.69141-0.42188 1.2031-0.42188z"/>
  </symbol>
  <symbol id="s" overflow="visible">
   <path d="m3.2344-2.5c0.11328-0.17578 0.25391-0.3125 0.42188-0.40625 0.16406-0.10156 0.35156-0.15625 0.5625-0.15625 0.33203 0 0.58594 0.10938 0.76562 0.32812 0.1875 0.21094 0.28125 0.51172 0.28125 0.90625v1.8281h-0.96875v-1.5625c0.007813-0.019531 0.015625-0.039062 0.015625-0.0625v-0.10938c0-0.21875-0.03125-0.375-0.09375-0.46875s-0.16406-0.14062-0.29688-0.14062c-0.1875 0-0.33594 0.078125-0.4375 0.23438-0.09375 0.14844-0.14062 0.35938-0.14062 0.64062v1.4688h-0.96875v-1.5625c0-0.33203-0.03125-0.54688-0.09375-0.64062-0.054688-0.09375-0.15234-0.14062-0.29688-0.14062-0.17969 0-0.32031 0.078125-0.42188 0.23438-0.09375 0.14844-0.14062 0.35938-0.14062 0.64062v1.4688h-0.96875v-2.9844h0.96875v0.4375c0.11328-0.17578 0.24219-0.30469 0.39062-0.39062 0.15625-0.082031 0.32812-0.125 0.51562-0.125 0.20703 0 0.39062 0.054688 0.54688 0.15625 0.15625 0.09375 0.27344 0.23047 0.35938 0.40625z"/>
  </symbol>
  <symbol id="r" overflow="visible">
   <path d="m3.4688-1.8281v1.8281h-0.96875v-1.3906c0-0.25781-0.007812-0.4375-0.015625-0.53125-0.011719-0.10156-0.03125-0.17578-0.0625-0.21875-0.03125-0.0625-0.085937-0.10938-0.15625-0.14062-0.0625-0.039062-0.13281-0.0625-0.20312-0.0625-0.21094 0-0.37109 0.078125-0.48438 0.23438-0.10547 0.15625-0.15625 0.37109-0.15625 0.64062v1.4688h-0.96875v-4.1562h0.96875v1.6094c0.13281-0.17578 0.28516-0.30469 0.45312-0.39062 0.16406-0.082031 0.34375-0.125 0.53125-0.125 0.34375 0 0.60156 0.10938 0.78125 0.32812 0.1875 0.21094 0.28125 0.51172 0.28125 0.90625z"/>
  </symbol>
  <symbol id="q" overflow="visible">
   <path d="m0.5-3.9844h1.1562l1.4375 2.7344v-2.7344h0.98438v3.9844h-1.1562l-1.4375-2.7344v2.7344h-0.98438z"/>
  </symbol>
  <symbol id="p" overflow="visible">
   <path d="m3.4688-1.8281v1.8281h-0.96875v-1.3906c0-0.25781-0.007812-0.4375-0.015625-0.53125-0.011719-0.10156-0.03125-0.17578-0.0625-0.21875-0.03125-0.0625-0.085937-0.10938-0.15625-0.14062-0.0625-0.039062-0.13281-0.0625-0.20312-0.0625-0.21094 0-0.37109 0.078125-0.48438 0.23438-0.10547 0.15625-0.15625 0.37109-0.15625 0.64062v1.4688h-0.96875v-2.9844h0.96875v0.4375c0.13281-0.17578 0.28516-0.30469 0.45312-0.39062 0.16406-0.082031 0.34375-0.125 0.53125-0.125 0.34375 0 0.60156 0.10938 0.78125 0.32812 0.1875 0.21094 0.28125 0.51172 0.28125 0.90625z"/>
  </symbol>
  <symbol id="o" overflow="visible">
   <path d="m0.5-3.9844h1.7031c0.50781 0 0.89844 0.11719 1.1719 0.34375 0.26953 0.21875 0.40625 0.53906 0.40625 0.95312 0 0.41797-0.13672 0.74219-0.40625 0.96875-0.27344 0.21875-0.66406 0.32812-1.1719 0.32812h-0.67188v1.3906h-1.0312zm1.0312 0.75v1.1094h0.5625c0.19531 0 0.34766-0.046875 0.45312-0.14062 0.11328-0.10156 0.17188-0.24219 0.17188-0.42188 0-0.17578-0.058594-0.3125-0.17188-0.40625-0.10547-0.09375-0.25781-0.14062-0.45312-0.14062z"/>
  </symbol>
  <symbol id="n" overflow="visible">
   <path d="m0.45312-2.9844h0.96875v2.9375c0 0.39453-0.10156 0.69531-0.29688 0.90625-0.1875 0.21875-0.46484 0.32812-0.82812 0.32812h-0.48438v-0.64062h0.17188c0.17578 0 0.29688-0.042969 0.35938-0.125 0.070312-0.074219 0.10938-0.23047 0.10938-0.46875zm0-1.1719h0.96875v0.78125h-0.96875z"/>
  </symbol>
  <symbol id="m" overflow="visible">
   <path d="m2.875-2.8906v0.76562c-0.125-0.082031-0.25781-0.14453-0.39062-0.1875-0.13672-0.039062-0.27344-0.0625-0.40625-0.0625-0.27344 0-0.48047 0.078125-0.625 0.23438-0.14844 0.15625-0.21875 0.37109-0.21875 0.64062 0 0.28125 0.070313 0.5 0.21875 0.65625 0.14453 0.15625 0.35156 0.23438 0.625 0.23438 0.14453 0 0.28516-0.019531 0.42188-0.0625 0.13281-0.039063 0.25781-0.10938 0.375-0.20312v0.78125c-0.14844 0.0625-0.29688 0.10156-0.45312 0.125-0.15625 0.03125-0.3125 0.046875-0.46875 0.046875-0.54297 0-0.96484-0.13281-1.2656-0.40625-0.30469-0.28125-0.45312-0.67188-0.45312-1.1719 0-0.48828 0.14844-0.86719 0.45312-1.1406 0.30078-0.28125 0.72266-0.42188 1.2656-0.42188 0.15625 0 0.3125 0.015625 0.46875 0.046875 0.15625 0.023437 0.30469 0.0625 0.45312 0.125z"/>
  </symbol>
 </defs>
 <g>
  <path d="m577.5 341.25c4.832 0 8.75-3.918 8.75-8.75v-35c0-0.089844-35-55.148-35-55.148v-32.352c0-4.832-3.918-8.75-8.75-8.75h-50.457c4.168-4.6484 6.707-10.781 6.707-17.5 0-4.7812-1.293-9.2656-3.5352-13.129 2.2891-3.9609 3.5352-8.4727 3.5352-13.121 0-6.4688-2.3789-12.605-6.5508-17.344 1.8945-4.0391 2.957-8.5391 2.957-13.281 0-17.316-14.09-31.406-31.406-31.406-6.918 0-13.516 2.2812-18.887 6.3281v-45.566c0-3.4961-2.082-6.6562-5.293-8.0391-3.2109-1.3828-6.9375-0.71875-9.4766 1.6875l-17.027 16.133h-11.164l-21.703-16.711c-2.6406-2.0352-6.2109-2.3906-9.2031-0.91797-2.9922 1.4727-4.8867 4.5156-4.8867 7.8516v49.527l-0.45312 0.39062c-6.1094 5.2812-11.688 11.164-16.66 17.52-2.4492-0.75781-5.0508-1.168-7.75-1.168-2.0703 0-4.1016 0.24609-6.0859 0.71484-4.8203-5.7812-12.07-9.4648-20.164-9.4648-11.621 0-21.496 7.5938-24.941 18.074-2.7578-0.38281-5.543-0.57422-8.332-0.57422h-27.977l0.003906-74.656c0-6.2383 4.4688-11.445 10.371-12.602 0.074218 7.4336 3.2773 14.793 9.4219 19.918l13.441 11.207c1.6367 1.3633 3.625 2.0312 5.5977 2.0312 2.5039 0 4.9961-1.0703 6.7266-3.1484l22.414-26.883c1.4844-1.7812 2.2031-4.082 1.9922-6.3945-0.21094-2.3125-1.3281-4.4453-3.1133-5.9297l-13.441-11.207c-10.883-9.0703-26.996-7.8203-36.367 2.6602h-4.1992c-16.734 0-30.348 13.613-30.348 30.348l0.003906 74.652h-8.75c-14.473 0-26.25 11.777-26.25 26.25 0 11.73 7.7344 21.688 18.375 25.043l2.3398 18.707h-64.461c-4.832 0-8.75 3.918-8.75 8.75v32.352s-34.949 54.277-34.969 54.555c-0.007812 0.10938-0.03125 35.594-0.03125 35.594 0 4.832 3.918 8.75 8.75 8.75h26.25v148.75h-26.25c-4.832 0-8.75 3.918-8.75 8.75v35c0 4.832 3.918 8.75 8.75 8.75h455c4.832 0 8.75-3.918 8.75-8.75v-35c0-4.832-3.918-8.75-8.75-8.75h-26.25v-148.75zm-293.87-303.1c1.7266-2.0742 4.2188-3.1445 6.7266-3.1445 1.9766 0 3.9609 0.66406 5.5977 2.0273l6.7188 5.6016-11.207 13.441-6.7188-5.6016c-3.707-3.0898-4.207-8.6172-1.1172-12.324zm250.12 198.1h-64.711c3.5195-5.0859 5.9141-11.031 6.7969-17.5h57.91v17.5zm-292.29-20.121-4.0469-32.379h44.312c8.5859 0 16.902 2.5195 24.047 7.2812 10.027 6.6875 21.699 10.219 33.754 10.219h20.953c12.051 0 23.723-3.5352 33.754-10.219 7.1445-4.7617 15.457-7.2812 24.047-7.2812h27.977c0 9.8398 5.4414 18.426 13.473 22.918l-1.1836 9.4609c-1.4336 11.473-11.234 20.121-22.793 20.121h-171.5c-11.559 0-21.359-8.6523-22.793-20.121zm238.84-62.578c0.61328 1.207 0.94922 2.5547 0.94922 3.9492 0 0.49219-0.046875 0.98047-0.12891 1.4609-2.7031-0.94141-5.6016-1.4609-8.6211-1.4609-0.76172 0-1.5156 0.039062-2.2656 0.10547 3.6211-0.76562 7.0156-2.1562 10.062-4.0547zm0.94922 30.199c0 4.8242-3.9258 8.75-8.75 8.75s-8.75-3.9258-8.75-8.75 3.9258-8.75 8.75-8.75 8.75 3.9258 8.75 8.75zm-3.5938-56.875c0 7.668-6.2383 13.906-13.906 13.906-0.58984 0-1.1758-0.046875-1.75-0.12109 1.1289-2.9219 1.75-6.0938 1.75-9.4102 0-6.4023-2.3086-12.273-6.1289-16.836 1.8828-0.92578 3.9688-1.4453 6.1289-1.4453 7.668 0 13.906 6.2383 13.906 13.906zm-40.156-4.375c4.8242 0 8.75 3.9258 8.75 8.75s-3.9258 8.75-8.75 8.75-8.75-3.9258-8.75-8.75 3.9258-8.75 8.75-8.75zm-60.398-3.1133 3.4805-3.0078c1.9219-1.6602 3.0273-4.0781 3.0273-6.6211v-35.746l9.9727 7.6797c1.5312 1.1797 3.4062 1.8164 5.3398 1.8164h17.629c2.2383 0 4.3906-0.85937 6.0195-2.3984l4.793-4.5391v30.465c-9.457 3.9727-16.113 13.328-16.113 24.211 0 0.13672 0.007812 0.26953 0.011719 0.40625-9.5391 1.1016-18.672 4.4336-26.738 9.8125-5.1758 3.4492-10.973 5.707-17.035 6.6953-0.11328-5.1875-1.7344-10.012-4.4492-14.043 4.2109-5.3398 8.9219-10.285 14.066-14.734zm-27.102 29.363c0 4.8242-3.9258 8.75-8.75 8.75-1.9375 0-3.7617-0.64453-5.2539-1.7656 3.2969-4.3867 5.2539-9.8359 5.2539-15.734 4.8242 0 8.75 3.9258 8.75 8.75zm-35-17.5c4.8242 0 8.75 3.9258 8.75 8.75s-3.9258 8.75-8.75 8.75-8.75-3.9258-8.75-8.75 3.9258-8.75 8.75-8.75zm-87.5 17.5h54.227c2.9883 0 5.9609 0.3125 8.8789 0.92188 3.8594 9.6992 13.336 16.578 24.395 16.578 2.0859 0 4.1172-0.25391 6.0625-0.71484 4.9258 5.9375 12.266 9.4648 20.188 9.4648 7.7578 0 14.738-3.3867 19.551-8.7578 11.938-0.0625 23.492-3.5898 33.43-10.215 7.0586-4.707 15.262-7.2109 23.738-7.2695 4.8086 5.3594 11.785 8.7383 19.535 8.7383 4.2109 0 8.1914-1.0039 11.723-2.7734 4.4531 2.3359 9.3945 3.5547 14.527 3.5547 1.0273 0 2.0469-0.054688 3.0508-0.15234-5.4375 1.2109-10.246 4.1094-13.844 8.1172h-34.684c-12.051 0-23.723 3.5352-33.754 10.219-7.1445 4.7617-15.457 7.2812-24.047 7.2812h-20.953c-8.5859 0-16.902-2.5195-24.047-7.2812-10.027-6.6875-21.699-10.219-33.754-10.219h-54.227c-4.8242 0-8.75-3.9258-8.75-8.75 0-4.8242 3.9258-8.75 8.75-8.75zm-61.25 70h57.91c0.88281 6.4688 3.2773 12.414 6.7969 17.5h-64.711v-17.5zm-4.0664 35h375.63l23.332 35h-422.3l23.332-35zm-30.934 52.5h437.5v17.5h-437.5zm315 140v-14.172l52.5-59.062v17.5l-47.773 55.738h-4.7266zm52.5-28.848v28.848h-24.727zm0-70.73-52.5 59.062v-64.484h52.5zm-201.25 125.83h105v17.5h-105zm96.25-17.5h-87.5v-113.75h87.5zm-192.5-8.75v-14.172l52.5-59.062v17.5l-47.773 55.738h-4.7266zm52.5-28.848v28.848h-24.727zm0-70.73-52.5 59.062v-64.484h52.5zm-87.5-5.4219h17.5v113.75c0 4.832 3.918 8.75 8.75 8.75h70c4.832 0 8.75-3.918 8.75-8.75v-113.75h17.5v113.75c-4.832 0-8.75 3.918-8.75 8.75v26.25h-113.75zm402.5 183.75h-437.5v-17.5h437.5zm-35-35h-113.75v-26.25c0-4.832-3.918-8.75-8.75-8.75v-113.75h17.5v113.75c0 4.832 3.918 8.75 8.75 8.75h70c4.832 0 8.75-3.918 8.75-8.75v-113.75h17.5z"/>
  <path d="m397.45 101.3c2.793 0 5.0547-2.2617 5.0547-5.0547s-2.2617-5.0547-5.0547-5.0547c-2.793 0-5.0547 2.2617-5.0547 5.0547s2.2617 5.0547 5.0547 5.0547z"/>
  <path d="m417.13 101.3c2.793 0 5.0547-2.2617 5.0547-5.0547s-2.2617-5.0547-5.0547-5.0547c-2.793 0-5.0547 2.2617-5.0547 5.0547s2.2617 5.0547 5.0547 5.0547z"/>
  <path d="m348.53 77.77c2.6797-4.0195 1.5938-9.4531-2.4258-12.133l-17.5-11.668c-4.0234-2.6836-9.4531-1.5938-12.133 2.4258-2.6797 4.0195-1.5938 9.4531 2.4258 12.133l17.5 11.668c1.4922 0.99609 3.1758 1.4727 4.8438 1.4727 2.8281 0 5.6016-1.3672 7.2891-3.8984z"/>
  <path d="m337.35 97.719-17.5-11.668c-4.0234-2.6836-9.4531-1.5938-12.133 2.4258-2.6797 4.0195-1.5938 9.4531 2.4258 12.133l17.5 11.668c1.4922 0.99609 3.1758 1.4727 4.8438 1.4727 2.8281 0 5.6016-1.3672 7.2891-3.8984 2.6797-4.0195 1.5938-9.4531-2.4258-12.133z"/>
  <use x="70" y="576.40625" xlink:href="#x"/>
  <use x="74.011719" y="576.40625" xlink:href="#d"/>
  <use x="76.710938" y="576.40625" xlink:href="#b"/>
  <use x="80.417969" y="576.40625" xlink:href="#a"/>
  <use x="84.109375" y="576.40625" xlink:href="#c"/>
  <use x="86.722656" y="576.40625" xlink:href="#b"/>
  <use x="90.433594" y="576.40625" xlink:href="#l"/>
  <use x="96.25" y="576.40625" xlink:href="#k"/>
  <use x="100.167969" y="576.40625" xlink:href="#j"/>
  <use x="105.636719" y="576.40625" xlink:href="#i"/>
  <use x="108.890625" y="576.40625" xlink:href="#h"/>
  <use x="112.785156" y="576.40625" xlink:href="#g"/>
  <use x="116.699219" y="576.40625" xlink:href="#a"/>
  <use x="120.386719" y="576.40625" xlink:href="#f"/>
  <use x="122.261719" y="576.40625" xlink:href="#b"/>
  <use x="125.972656" y="576.40625" xlink:href="#d"/>
  <use x="128.667969" y="576.40625" xlink:href="#w"/>
  <use x="134.210938" y="576.40625" xlink:href="#f"/>
  <use x="136.085938" y="576.40625" xlink:href="#a"/>
  <use x="139.773438" y="576.40625" xlink:href="#v"/>
  <use x="141.648438" y="576.40625" xlink:href="#g"/>
  <use x="145.5625" y="576.40625" xlink:href="#a"/>
  <use x="149.253906" y="576.40625" xlink:href="#u"/>
  <use x="154.304688" y="576.40625" xlink:href="#a"/>
  <use x="157.996094" y="576.40625" xlink:href="#c"/>
  <use x="70" y="581.875" xlink:href="#t"/>
  <use x="72.378906" y="581.875" xlink:href="#d"/>
  <use x="75.078125" y="581.875" xlink:href="#e"/>
  <use x="78.832031" y="581.875" xlink:href="#s"/>
  <use x="86.4375" y="581.875" xlink:href="#c"/>
  <use x="89.050781" y="581.875" xlink:href="#r"/>
  <use x="92.941406" y="581.875" xlink:href="#b"/>
  <use x="98.554688" y="581.875" xlink:href="#q"/>
  <use x="103.132812" y="581.875" xlink:href="#e"/>
  <use x="106.890625" y="581.875" xlink:href="#h"/>
  <use x="110.785156" y="581.875" xlink:href="#p"/>
  <use x="116.582031" y="581.875" xlink:href="#o"/>
  <use x="120.589844" y="581.875" xlink:href="#d"/>
  <use x="123.285156" y="581.875" xlink:href="#e"/>
  <use x="127.042969" y="581.875" xlink:href="#n"/>
  <use x="128.917969" y="581.875" xlink:href="#b"/>
  <use x="132.625" y="581.875" xlink:href="#m"/>
  <use x="135.867188" y="581.875" xlink:href="#c"/>
 </g>
</svg>
