<svg xmlns="http://www.w3.org/2000/svg" xmlns:xlink="http://www.w3.org/1999/xlink" version="1.1" width="1000" height="1000" viewBox="0 0 1000 1000" xml:space="preserve">
<desc>Created with Fabric.js 3.5.0</desc>
<defs>
</defs>
<rect x="0" y="0" width="100%" height="100%" fill="#ffffff"/>
<g transform="matrix(1.3893 0 0 1.3893 499.9966 628.3601)" id="807456">
<g style="" vector-effect="non-scaling-stroke">
		<g transform="matrix(1.3333 0 0 1.3333 -0.0025 -93.3308)">
<path style="stroke: none; stroke-width: 1; stroke-dasharray: none; stroke-linecap: butt; stroke-dashoffset: 0; stroke-linejoin: miter; stroke-miterlimit: 4; is-custom-font: none; font-file-url: none; fill: rgb(0,0,0); fill-rule: nonzero; opacity: 1;" transform=" translate(-350.004, -280.0085)" d="m 577.5 341.25 c 4.832 0 8.75 -3.918 8.75 -8.75 v -35 c 0 -0.089844 -35 -55.148 -35 -55.148 v -32.352 c 0 -4.832 -3.918 -8.75 -8.75 -8.75 h -50.457 c 4.168 -4.6484 6.707 -10.781 6.707 -17.5 c 0 -4.7812 -1.293 -9.2656 -3.5352 -13.129 c 2.2891 -3.9609 3.5352 -8.4727 3.5352 -13.121 c 0 -6.4688 -2.3789 -12.605 -6.5508 -17.344 c 1.8945 -4.0391 2.957 -8.5391 2.957 -13.281 c 0 -17.316 -14.09 -31.406 -31.406 -31.406 c -6.918 0 -13.516 2.2812 -18.887 6.3281 v -45.566 c 0 -3.4961 -2.082 -6.6562 -5.293 -8.0391 c -3.2109 -1.3828 -6.9375 -0.71875 -9.4766 1.6875 l -17.027 16.133 h -11.164 l -21.703 -16.711 c -2.6406 -2.0352 -6.2109 -2.3906 -9.2031 -0.91797 c -2.9922 1.4727 -4.8867 4.5156 -4.8867 7.8516 v 49.527 l -0.45312 0.39062 c -6.1094 5.2812 -11.688 11.164 -16.66 17.52 c -2.4492 -0.75781 -5.0508 -1.168 -7.75 -1.168 c -2.0703 0 -4.1016 0.24609 -6.0859 0.71484 c -4.8203 -5.7812 -12.07 -9.4648 -20.164 -9.4648 c -11.621 0 -21.496 7.5938 -24.941 18.074 c -2.7578 -0.38281 -5.543 -0.57422 -8.332 -0.57422 h -27.977 l 0.003906 -74.656 c 0 -6.2383 4.4688 -11.445 10.371 -12.602 c 0.074218 7.4336 3.2773 14.793 9.4219 19.918 l 13.441 11.207 c 1.6367 1.3633 3.625 2.0312 5.5977 2.0312 c 2.5039 0 4.9961 -1.0703 6.7266 -3.1484 l 22.414 -26.883 c 1.4844 -1.7812 2.2031 -4.082 1.9922 -6.3945 c -0.21094 -2.3125 -1.3281 -4.4453 -3.1133 -5.9297 l -13.441 -11.207 c -10.883 -9.0703 -26.996 -7.8203 -36.367 2.6602 h -4.1992 c -16.734 0 -30.348 13.613 -30.348 30.348 l 0.003906 74.652 h -8.75 c -14.473 0 -26.25 11.777 -26.25 26.25 c 0 11.73 7.7344 21.688 18.375 25.043 l 2.3398 18.707 h -64.461 c -4.832 0 -8.75 3.918 -8.75 8.75 v 32.352 s -34.949 54.277 -34.969 54.555 c -0.007812 0.10938 -0.03125 35.594 -0.03125 35.594 c 0 4.832 3.918 8.75 8.75 8.75 h 26.25 v 148.75 h -26.25 c -4.832 0 -8.75 3.918 -8.75 8.75 v 35 c 0 4.832 3.918 8.75 8.75 8.75 h 455 c 4.832 0 8.75 -3.918 8.75 -8.75 v -35 c 0 -4.832 -3.918 -8.75 -8.75 -8.75 h -26.25 v -148.75 z m -293.87 -303.1 c 1.7266 -2.0742 4.2188 -3.1445 6.7266 -3.1445 c 1.9766 0 3.9609 0.66406 5.5977 2.0273 l 6.7188 5.6016 l -11.207 13.441 l -6.7188 -5.6016 c -3.707 -3.0898 -4.207 -8.6172 -1.1172 -12.324 z m 250.12 198.1 h -64.711 c 3.5195 -5.0859 5.9141 -11.031 6.7969 -17.5 h 57.91 v 17.5 z m -292.29 -20.121 l -4.0469 -32.379 h 44.312 c 8.5859 0 16.902 2.5195 24.047 7.2812 c 10.027 6.6875 21.699 10.219 33.754 10.219 h 20.953 c 12.051 0 23.723 -3.5352 33.754 -10.219 c 7.1445 -4.7617 15.457 -7.2812 24.047 -7.2812 h 27.977 c 0 9.8398 5.4414 18.426 13.473 22.918 l -1.1836 9.4609 c -1.4336 11.473 -11.234 20.121 -22.793 20.121 h -171.5 c -11.559 0 -21.359 -8.6523 -22.793 -20.121 z m 238.84 -62.578 c 0.61328 1.207 0.94922 2.5547 0.94922 3.9492 c 0 0.49219 -0.046875 0.98047 -0.12891 1.4609 c -2.7031 -0.94141 -5.6016 -1.4609 -8.6211 -1.4609 c -0.76172 0 -1.5156 0.039062 -2.2656 0.10547 c 3.6211 -0.76562 7.0156 -2.1562 10.062 -4.0547 z m 0.94922 30.199 c 0 4.8242 -3.9258 8.75 -8.75 8.75 s -8.75 -3.9258 -8.75 -8.75 s 3.9258 -8.75 8.75 -8.75 s 8.75 3.9258 8.75 8.75 z m -3.5938 -56.875 c 0 7.668 -6.2383 13.906 -13.906 13.906 c -0.58984 0 -1.1758 -0.046875 -1.75 -0.12109 c 1.1289 -2.9219 1.75 -6.0938 1.75 -9.4102 c 0 -6.4023 -2.3086 -12.273 -6.1289 -16.836 c 1.8828 -0.92578 3.9688 -1.4453 6.1289 -1.4453 c 7.668 0 13.906 6.2383 13.906 13.906 z m -40.156 -4.375 c 4.8242 0 8.75 3.9258 8.75 8.75 s -3.9258 8.75 -8.75 8.75 s -8.75 -3.9258 -8.75 -8.75 s 3.9258 -8.75 8.75 -8.75 z m -60.398 -3.1133 l 3.4805 -3.0078 c 1.9219 -1.6602 3.0273 -4.0781 3.0273 -6.6211 v -35.746 l 9.9727 7.6797 c 1.5312 1.1797 3.4062 1.8164 5.3398 1.8164 h 17.629 c 2.2383 0 4.3906 -0.85937 6.0195 -2.3984 l 4.793 -4.5391 v 30.465 c -9.457 3.9727 -16.113 13.328 -16.113 24.211 c 0 0.13672 0.007812 0.26953 0.011719 0.40625 c -9.5391 1.1016 -18.672 4.4336 -26.738 9.8125 c -5.1758 3.4492 -10.973 5.707 -17.035 6.6953 c -0.11328 -5.1875 -1.7344 -10.012 -4.4492 -14.043 c 4.2109 -5.3398 8.9219 -10.285 14.066 -14.734 z m -27.102 29.363 c 0 4.8242 -3.9258 8.75 -8.75 8.75 c -1.9375 0 -3.7617 -0.64453 -5.2539 -1.7656 c 3.2969 -4.3867 5.2539 -9.8359 5.2539 -15.734 c 4.8242 0 8.75 3.9258 8.75 8.75 z m -35 -17.5 c 4.8242 0 8.75 3.9258 8.75 8.75 s -3.9258 8.75 -8.75 8.75 s -8.75 -3.9258 -8.75 -8.75 s 3.9258 -8.75 8.75 -8.75 z m -87.5 17.5 h 54.227 c 2.9883 0 5.9609 0.3125 8.8789 0.92188 c 3.8594 9.6992 13.336 16.578 24.395 16.578 c 2.0859 0 4.1172 -0.25391 6.0625 -0.71484 c 4.9258 5.9375 12.266 9.4648 20.188 9.4648 c 7.7578 0 14.738 -3.3867 19.551 -8.7578 c 11.938 -0.0625 23.492 -3.5898 33.43 -10.215 c 7.0586 -4.707 15.262 -7.2109 23.738 -7.2695 c 4.8086 5.3594 11.785 8.7383 19.535 8.7383 c 4.2109 0 8.1914 -1.0039 11.723 -2.7734 c 4.4531 2.3359 9.3945 3.5547 14.527 3.5547 c 1.0273 0 2.0469 -0.054688 3.0508 -0.15234 c -5.4375 1.2109 -10.246 4.1094 -13.844 8.1172 h -34.684 c -12.051 0 -23.723 3.5352 -33.754 10.219 c -7.1445 4.7617 -15.457 7.2812 -24.047 7.2812 h -20.953 c -8.5859 0 -16.902 -2.5195 -24.047 -7.2812 c -10.027 -6.6875 -21.699 -10.219 -33.754 -10.219 h -54.227 c -4.8242 0 -8.75 -3.9258 -8.75 -8.75 c 0 -4.8242 3.9258 -8.75 8.75 -8.75 z m -61.25 70 h 57.91 c 0.88281 6.4688 3.2773 12.414 6.7969 17.5 h -64.711 v -17.5 z m -4.0664 35 h 375.63 l 23.332 35 h -422.3 l 23.332 -35 z m -30.934 52.5 h 437.5 v 17.5 h -437.5 z m 315 140 v -14.172 l 52.5 -59.062 v 17.5 l -47.773 55.738 h -4.7266 z m 52.5 -28.848 v 28.848 h -24.727 z m 0 -70.73 l -52.5 59.062 v -64.484 h 52.5 z m -201.25 125.83 h 105 v 17.5 h -105 z m 96.25 -17.5 h -87.5 v -113.75 h 87.5 z m -192.5 -8.75 v -14.172 l 52.5 -59.062 v 17.5 l -47.773 55.738 h -4.7266 z m 52.5 -28.848 v 28.848 h -24.727 z m 0 -70.73 l -52.5 59.062 v -64.484 h 52.5 z m -87.5 -5.4219 h 17.5 v 113.75 c 0 4.832 3.918 8.75 8.75 8.75 h 70 c 4.832 0 8.75 -3.918 8.75 -8.75 v -113.75 h 17.5 v 113.75 c -4.832 0 -8.75 3.918 -8.75 8.75 v 26.25 h -113.75 z m 402.5 183.75 h -437.5 v -17.5 h 437.5 z m -35 -35 h -113.75 v -26.25 c 0 -4.832 -3.918 -8.75 -8.75 -8.75 v -113.75 h 17.5 v 113.75 c 0 4.832 3.918 8.75 8.75 8.75 h 70 c 4.832 0 8.75 -3.918 8.75 -8.75 v -113.75 h 17.5 z" stroke-linecap="round"/>
</g>
		<g transform="matrix(1.3333 0 0 1.3333 63.2665 -338.3398)">
<path style="stroke: none; stroke-width: 1; stroke-dasharray: none; stroke-linecap: butt; stroke-dashoffset: 0; stroke-linejoin: miter; stroke-miterlimit: 4; is-custom-font: none; font-file-url: none; fill: rgb(0,0,0); fill-rule: nonzero; opacity: 1;" transform=" translate(-397.45, -96.2453)" d="m 397.45 101.3 c 2.793 0 5.0547 -2.2617 5.0547 -5.0547 s -2.2617 -5.0547 -5.0547 -5.0547 c -2.793 0 -5.0547 2.2617 -5.0547 5.0547 s 2.2617 5.0547 5.0547 5.0547 z" stroke-linecap="round"/>
</g>
		<g transform="matrix(1.3333 0 0 1.3333 89.5065 -338.3398)">
<path style="stroke: none; stroke-width: 1; stroke-dasharray: none; stroke-linecap: butt; stroke-dashoffset: 0; stroke-linejoin: miter; stroke-miterlimit: 4; is-custom-font: none; font-file-url: none; fill: rgb(0,0,0); fill-rule: nonzero; opacity: 1;" transform=" translate(-417.13, -96.2453)" d="m 417.13 101.3 c 2.793 0 5.0547 -2.2617 5.0547 -5.0547 s -2.2617 -5.0547 -5.0547 -5.0547 c -2.793 0 -5.0547 2.2617 -5.0547 5.0547 s 2.2617 5.0547 5.0547 5.0547 z" stroke-linecap="round"/>
</g>
		<g transform="matrix(1.3333 0 0 1.3333 -23.3331 -377.2234)">
<path style="stroke: none; stroke-width: 1; stroke-dasharray: none; stroke-linecap: butt; stroke-dashoffset: 0; stroke-linejoin: miter; stroke-miterlimit: 4; is-custom-font: none; font-file-url: none; fill: rgb(0,0,0); fill-rule: nonzero; opacity: 1;" transform=" translate(-332.5006, -67.0828)" d="m 348.53 77.77 c 2.6797 -4.0195 1.5938 -9.4531 -2.4258 -12.133 l -17.5 -11.668 c -4.0234 -2.6836 -9.4531 -1.5938 -12.133 2.4258 c -2.6797 4.0195 -1.5938 9.4531 2.4258 12.133 l 17.5 11.668 c 1.4922 0.99609 3.1758 1.4727 4.8438 1.4727 c 2.8281 0 5.6016 -1.3672 7.2891 -3.8984 z" stroke-linecap="round"/>
</g>
		<g transform="matrix(1.3333 0 0 1.3333 -35.0055 -334.4474)">
<path style="stroke: none; stroke-width: 1; stroke-dasharray: none; stroke-linecap: butt; stroke-dashoffset: 0; stroke-linejoin: miter; stroke-miterlimit: 4; is-custom-font: none; font-file-url: none; fill: rgb(0,0,0); fill-rule: nonzero; opacity: 1;" transform=" translate(-323.7464, -99.1648)" d="m 337.35 97.719 l -17.5 -11.668 c -4.0234 -2.6836 -9.4531 -1.5938 -12.133 2.4258 c -2.6797 4.0195 -1.5938 9.4531 2.4258 12.133 l 17.5 11.668 c 1.4922 0.99609 3.1758 1.4727 4.8438 1.4727 c 2.8281 0 5.6016 -1.3672 7.2891 -3.8984 c 2.6797 -4.0195 1.5938 -9.4531 -2.4258 -12.133 z" stroke-linecap="round"/>
</g>
		<g transform="matrix(1.3333 0 0 1.3333 -370.719 299.2187)">
<path style="stroke: none; stroke-width: 1; stroke-dasharray: none; stroke-linecap: butt; stroke-dashoffset: 0; stroke-linejoin: miter; stroke-miterlimit: 4; is-custom-font: none; font-file-url: none; fill: rgb(0,0,0); fill-rule: nonzero; opacity: 1;" transform=" translate(-1.9609, 1.9922)" d="m 3.6562 -0.21875 c -0.1875 0.09375 -0.38672 0.16797 -0.59375 0.21875 c -0.19922 0.050781 -0.40625 0.078125 -0.625 0.078125 c -0.66797 0 -1.1992 -0.17969 -1.5938 -0.54688 c -0.38672 -0.375 -0.57812 -0.87891 -0.57812 -1.5156 c 0 -0.64453 0.19141 -1.1484 0.57812 -1.5156 c 0.39453 -0.375 0.92578 -0.5625 1.5938 -0.5625 c 0.21875 0 0.42578 0.027344 0.625 0.078125 c 0.20703 0.054687 0.40625 0.125 0.59375 0.21875 v 0.82812 c -0.1875 -0.125 -0.375 -0.21875 -0.5625 -0.28125 c -0.17969 -0.0625 -0.37109 -0.09375 -0.57812 -0.09375 c -0.36719 0 -0.65625 0.12109 -0.875 0.35938 c -0.21094 0.23047 -0.3125 0.55469 -0.3125 0.96875 c 0 0.40625 0.10156 0.73047 0.3125 0.96875 c 0.21875 0.23047 0.50781 0.34375 0.875 0.34375 c 0.20703 0 0.39844 -0.023437 0.57812 -0.078125 c 0.1875 -0.0625 0.375 -0.16016 0.5625 -0.29688 z" stroke-linecap="round"/>
</g>
		<g transform="matrix(1.3333 0 0 1.3333 -365.8907 299.8332)">
<path style="stroke: none; stroke-width: 1; stroke-dasharray: none; stroke-linecap: butt; stroke-dashoffset: 0; stroke-linejoin: miter; stroke-miterlimit: 4; is-custom-font: none; font-file-url: none; fill: rgb(0,0,0); fill-rule: nonzero; opacity: 1;" transform=" translate(-1.5703, 1.5313)" d="m 2.6875 -2.1719 c -0.085938 -0.039063 -0.16797 -0.070313 -0.25 -0.09375 c -0.085938 -0.019531 -0.16797 -0.03125 -0.25 -0.03125 c -0.25 0 -0.44531 0.085937 -0.57812 0.25 c -0.125 0.15625 -0.1875 0.38281 -0.1875 0.67188 v 1.375 h -0.96875 v -2.9844 h 0.96875 v 0.48438 c 0.11328 -0.19531 0.25 -0.33594 0.40625 -0.42188 c 0.16406 -0.09375 0.35938 -0.14062 0.57812 -0.14062 h 0.10938 c 0.039063 0 0.09375 0.007812 0.15625 0.015625 z" stroke-linecap="round"/>
</g>
		<g transform="matrix(1.3333 0 0 1.3333 -361.9376 299.8854)">
<path style="stroke: none; stroke-width: 1; stroke-dasharray: none; stroke-linecap: butt; stroke-dashoffset: 0; stroke-linejoin: miter; stroke-miterlimit: 4; is-custom-font: none; font-file-url: none; fill: rgb(0,0,0); fill-rule: nonzero; opacity: 1;" transform=" translate(-1.836, 1.4922)" d="m 3.4375 -1.5 v 0.26562 h -2.2344 c 0.03125 0.23047 0.11328 0.40234 0.25 0.51562 c 0.13281 0.10547 0.32812 0.15625 0.57812 0.15625 c 0.20703 0 0.41406 -0.023438 0.625 -0.078125 c 0.20703 -0.0625 0.42188 -0.15625 0.64062 -0.28125 v 0.73438 c -0.21875 0.09375 -0.44531 0.16406 -0.67188 0.20312 c -0.23047 0.039062 -0.45312 0.0625 -0.67188 0.0625 c -0.54297 0 -0.96484 -0.13281 -1.2656 -0.40625 c -0.30469 -0.28125 -0.45312 -0.67188 -0.45312 -1.1719 c 0 -0.47656 0.14453 -0.85938 0.4375 -1.1406 c 0.30078 -0.28125 0.70703 -0.42188 1.2188 -0.42188 c 0.46875 0 0.84375 0.14062 1.125 0.42188 s 0.42188 0.66406 0.42188 1.1406 z m -0.96875 -0.32812 c 0 -0.17578 -0.058594 -0.31641 -0.17188 -0.42188 c -0.10547 -0.11328 -0.24219 -0.17188 -0.40625 -0.17188 c -0.1875 0 -0.33984 0.054687 -0.45312 0.15625 c -0.11719 0.10547 -0.1875 0.25 -0.21875 0.4375 z" stroke-linecap="round"/>
</g>
		<g transform="matrix(1.3333 0 0 1.3333 -357.1094 299.8852)">
<path style="stroke: none; stroke-width: 1; stroke-dasharray: none; stroke-linecap: butt; stroke-dashoffset: 0; stroke-linejoin: miter; stroke-miterlimit: 4; is-custom-font: none; font-file-url: none; fill: rgb(0,0,0); fill-rule: nonzero; opacity: 1;" transform=" translate(-1.7501, 1.4923)" d="m 1.7969 -1.3438 c -0.19922 0 -0.35156 0.039062 -0.45312 0.10938 c -0.09375 0.0625 -0.14062 0.16406 -0.14062 0.29688 c 0 0.11719 0.035156 0.21094 0.10938 0.28125 c 0.082031 0.0625 0.19531 0.09375 0.34375 0.09375 c 0.17578 0 0.32812 -0.0625 0.45312 -0.1875 s 0.1875 -0.28516 0.1875 -0.48438 v -0.10938 z m 1.4688 -0.35938 v 1.7031 h -0.96875 v -0.4375 c -0.125 0.17969 -0.27344 0.30859 -0.4375 0.39062 c -0.15625 0.082031 -0.35156 0.125 -0.57812 0.125 c -0.3125 0 -0.57031 -0.085938 -0.76562 -0.26562 c -0.1875 -0.1875 -0.28125 -0.42188 -0.28125 -0.70312 c 0 -0.35156 0.11719 -0.61328 0.35938 -0.78125 c 0.23828 -0.16406 0.61719 -0.25 1.1406 -0.25 h 0.5625 v -0.0625 c 0 -0.15625 -0.0625 -0.26562 -0.1875 -0.32812 c -0.11719 -0.070312 -0.29688 -0.10938 -0.54688 -0.10938 c -0.21094 0 -0.40234 0.023437 -0.57812 0.0625 c -0.17969 0.042969 -0.33984 0.10156 -0.48438 0.17188 v -0.71875 c 0.19531 -0.050781 0.39844 -0.085938 0.60938 -0.10938 c 0.20703 -0.03125 0.41406 -0.046875 0.625 -0.046875 c 0.53906 0 0.92969 0.10938 1.1719 0.32812 c 0.23828 0.21094 0.35938 0.55469 0.35938 1.0312 z" stroke-linecap="round"/>
</g>
		<g transform="matrix(1.3333 0 0 1.3333 -352.8125 299.3124)">
<path style="stroke: none; stroke-width: 1; stroke-dasharray: none; stroke-linecap: butt; stroke-dashoffset: 0; stroke-linejoin: miter; stroke-miterlimit: 4; is-custom-font: none; font-file-url: none; fill: rgb(0,0,0); fill-rule: nonzero; opacity: 1;" transform=" translate(-1.2813, 1.922)" d="m 1.5 -3.8438 v 0.85938 h 0.98438 v 0.67188 h -0.98438 v 1.2812 c 0 0.13672 0.023438 0.23047 0.078125 0.28125 c 0.0625 0.042969 0.17578 0.0625 0.34375 0.0625 h 0.48438 v 0.6875 h -0.8125 c -0.38672 0 -0.65625 -0.078125 -0.8125 -0.23438 s -0.23438 -0.42188 -0.23438 -0.79688 v -1.2812 h -0.46875 v -0.67188 h 0.46875 v -0.85938 z" stroke-linecap="round"/>
</g>
		<g transform="matrix(1.3333 0 0 1.3333 -348.5886 299.8854)">
<path style="stroke: none; stroke-width: 1; stroke-dasharray: none; stroke-linecap: butt; stroke-dashoffset: 0; stroke-linejoin: miter; stroke-miterlimit: 4; is-custom-font: none; font-file-url: none; fill: rgb(0,0,0); fill-rule: nonzero; opacity: 1;" transform=" translate(-1.836, 1.4922)" d="m 3.4375 -1.5 v 0.26562 h -2.2344 c 0.03125 0.23047 0.11328 0.40234 0.25 0.51562 c 0.13281 0.10547 0.32812 0.15625 0.57812 0.15625 c 0.20703 0 0.41406 -0.023438 0.625 -0.078125 c 0.20703 -0.0625 0.42188 -0.15625 0.64062 -0.28125 v 0.73438 c -0.21875 0.09375 -0.44531 0.16406 -0.67188 0.20312 c -0.23047 0.039062 -0.45312 0.0625 -0.67188 0.0625 c -0.54297 0 -0.96484 -0.13281 -1.2656 -0.40625 c -0.30469 -0.28125 -0.45312 -0.67188 -0.45312 -1.1719 c 0 -0.47656 0.14453 -0.85938 0.4375 -1.1406 c 0.30078 -0.28125 0.70703 -0.42188 1.2188 -0.42188 c 0.46875 0 0.84375 0.14062 1.125 0.42188 s 0.42188 0.66406 0.42188 1.1406 z m -0.96875 -0.32812 c 0 -0.17578 -0.058594 -0.31641 -0.17188 -0.42188 c -0.10547 -0.11328 -0.24219 -0.17188 -0.40625 -0.17188 c -0.1875 0 -0.33984 0.054687 -0.45312 0.15625 c -0.11719 0.10547 -0.1875 0.25 -0.21875 0.4375 z" stroke-linecap="round"/>
</g>
		<g transform="matrix(1.3333 0 0 1.3333 -343.6199 299.1561)">
<path style="stroke: none; stroke-width: 1; stroke-dasharray: none; stroke-linecap: butt; stroke-dashoffset: 0; stroke-linejoin: miter; stroke-miterlimit: 4; is-custom-font: none; font-file-url: none; fill: rgb(0,0,0); fill-rule: nonzero; opacity: 1;" transform=" translate(-1.8516, 2.0391)" d="m 2.5 -2.5469 v -1.6094 h 0.95312 v 4.1562 h -0.95312 v -0.4375 c -0.13672 0.17969 -0.28125 0.30859 -0.4375 0.39062 c -0.15625 0.082031 -0.33984 0.125 -0.54688 0.125 c -0.375 0 -0.68359 -0.14453 -0.92188 -0.4375 c -0.23047 -0.28906 -0.34375 -0.67188 -0.34375 -1.1406 c 0 -0.45703 0.11328 -0.83203 0.34375 -1.125 c 0.23828 -0.28906 0.54688 -0.4375 0.92188 -0.4375 c 0.19531 0 0.375 0.042969 0.53125 0.125 c 0.16406 0.085938 0.31641 0.21484 0.45312 0.39062 z m -0.64062 1.9375 c 0.20703 0 0.36328 -0.070313 0.46875 -0.21875 c 0.11328 -0.15625 0.17188 -0.37891 0.17188 -0.67188 c 0 -0.28125 -0.058594 -0.49219 -0.17188 -0.64062 c -0.10547 -0.15625 -0.26172 -0.23438 -0.46875 -0.23438 c -0.19922 0 -0.35547 0.078125 -0.46875 0.23438 c -0.10547 0.14844 -0.15625 0.35938 -0.15625 0.64062 c 0 0.29297 0.050781 0.51562 0.15625 0.67188 c 0.11328 0.14844 0.26953 0.21875 0.46875 0.21875 z" stroke-linecap="round"/>
</g>
		<g transform="matrix(1.3333 0 0 1.3333 -335.5834 299.1562)">
<path style="stroke: none; stroke-width: 1; stroke-dasharray: none; stroke-linecap: butt; stroke-dashoffset: 0; stroke-linejoin: miter; stroke-miterlimit: 4; is-custom-font: none; font-file-url: none; fill: rgb(0,0,0); fill-rule: nonzero; opacity: 1;" transform=" translate(-2.0625, 2.0391)" d="m 2.0469 -0.60938 c 0.20703 0 0.36328 -0.070313 0.46875 -0.21875 c 0.11328 -0.15625 0.17188 -0.37891 0.17188 -0.67188 c 0 -0.28125 -0.058594 -0.49219 -0.17188 -0.64062 c -0.10547 -0.15625 -0.26172 -0.23438 -0.46875 -0.23438 c -0.19922 0 -0.35547 0.078125 -0.46875 0.23438 c -0.10547 0.14844 -0.15625 0.35938 -0.15625 0.64062 c 0 0.29297 0.050781 0.51562 0.15625 0.67188 c 0.11328 0.14844 0.26953 0.21875 0.46875 0.21875 z m -0.625 -1.9375 c 0.125 -0.17578 0.26562 -0.30469 0.42188 -0.39062 c 0.16406 -0.082031 0.35156 -0.125 0.5625 -0.125 c 0.36328 0 0.66406 0.14844 0.90625 0.4375 c 0.23828 0.29297 0.35938 0.66797 0.35938 1.125 c 0 0.46875 -0.12109 0.85156 -0.35938 1.1406 c -0.24219 0.29297 -0.54297 0.4375 -0.90625 0.4375 c -0.21094 0 -0.39844 -0.042969 -0.5625 -0.125 c -0.15625 -0.082031 -0.29688 -0.21094 -0.42188 -0.39062 v 0.4375 h -0.96875 v -4.1562 h 0.96875 z" stroke-linecap="round"/>
</g>
		<g transform="matrix(1.3333 0 0 1.3333 -330.7553 300.6769)">
<path style="stroke: none; stroke-width: 1; stroke-dasharray: none; stroke-linecap: butt; stroke-dashoffset: 0; stroke-linejoin: miter; stroke-miterlimit: 4; is-custom-font: none; font-file-url: none; fill: rgb(0,0,0); fill-rule: nonzero; opacity: 1;" transform=" translate(-1.7656, 0.8985)" d="m 0.0625 -2.9844 h 0.95312 l 0.8125 2.0156 l 0.6875 -2.0156 h 0.95312 l -1.2656 3.2656 c -0.125 0.33203 -0.27344 0.56641 -0.4375 0.70312 c -0.16797 0.13281 -0.39062 0.20312 -0.67188 0.20312 h -0.54688 v -0.64062 h 0.29688 c 0.16406 0 0.28516 -0.027344 0.35938 -0.078125 c 0.070313 -0.054688 0.12891 -0.14062 0.17188 -0.26562 l 0.03125 -0.09375 z" stroke-linecap="round"/>
</g>
		<g transform="matrix(1.3333 0 0 1.3333 -323.6303 299.8853)">
<path style="stroke: none; stroke-width: 1; stroke-dasharray: none; stroke-linecap: butt; stroke-dashoffset: 0; stroke-linejoin: miter; stroke-miterlimit: 4; is-custom-font: none; font-file-url: none; fill: rgb(0,0,0); fill-rule: nonzero; opacity: 1;" transform=" translate(-1.6406, 1.4922)" d="m 2.7969 -2.8906 v 0.71875 c -0.21094 -0.082031 -0.40625 -0.14453 -0.59375 -0.1875 c -0.1875 -0.039063 -0.37109 -0.0625 -0.54688 -0.0625 c -0.17969 0 -0.3125 0.023437 -0.40625 0.0625 c -0.085938 0.042969 -0.125 0.10938 -0.125 0.20312 c 0 0.085938 0.03125 0.14844 0.09375 0.1875 c 0.070312 0.042969 0.19531 0.074219 0.375 0.09375 l 0.15625 0.015625 c 0.48828 0.0625 0.81641 0.16797 0.98438 0.3125 c 0.17578 0.13672 0.26562 0.35938 0.26562 0.67188 s -0.12109 0.55469 -0.35938 0.71875 c -0.23047 0.15625 -0.57812 0.23438 -1.0469 0.23438 c -0.19922 0 -0.40625 -0.015625 -0.625 -0.046875 c -0.21094 -0.03125 -0.42188 -0.078125 -0.64062 -0.14062 v -0.71875 c 0.1875 0.085937 0.37891 0.15234 0.57812 0.20312 c 0.20703 0.042969 0.41406 0.0625 0.625 0.0625 c 0.1875 0 0.32812 -0.023438 0.42188 -0.078125 c 0.09375 -0.050781 0.14062 -0.125 0.14062 -0.21875 s -0.039062 -0.16016 -0.10938 -0.20312 c -0.0625 -0.039062 -0.1875 -0.070312 -0.375 -0.09375 l -0.17188 -0.015625 c -0.42969 -0.050781 -0.73047 -0.14844 -0.90625 -0.29688 c -0.16797 -0.14453 -0.25 -0.36328 -0.25 -0.65625 c 0 -0.32031 0.10938 -0.55469 0.32812 -0.70312 c 0.21875 -0.15625 0.55078 -0.23438 1 -0.23438 c 0.17578 0 0.35938 0.015625 0.54688 0.046875 c 0.19531 0.023437 0.41016 0.0625 0.64062 0.125 z" stroke-linecap="round"/>
</g>
		<g transform="matrix(1.3333 0 0 1.3333 -318.9063 299.9374)">
<path style="stroke: none; stroke-width: 1; stroke-dasharray: none; stroke-linecap: butt; stroke-dashoffset: 0; stroke-linejoin: miter; stroke-miterlimit: 4; is-custom-font: none; font-file-url: none; fill: rgb(0,0,0); fill-rule: nonzero; opacity: 1;" transform=" translate(-1.9297, 1.4532)" d="m 0.42188 -1.1719 v -1.8125 h 0.96875 v 0.29688 v 0.60938 v 0.48438 c 0 0.24219 0.003906 0.41797 0.015625 0.53125 c 0.007812 0.10547 0.03125 0.17969 0.0625 0.21875 c 0.039062 0.0625 0.09375 0.11719 0.15625 0.15625 c 0.0625 0.03125 0.13281 0.046875 0.21875 0.046875 c 0.19531 0 0.35156 -0.078125 0.46875 -0.23438 c 0.11328 -0.15625 0.17188 -0.36719 0.17188 -0.64062 v -1.4688 h 0.95312 v 2.9844 h -0.95312 v -0.4375 c -0.14844 0.17969 -0.30469 0.30859 -0.46875 0.39062 c -0.15625 0.082031 -0.33594 0.125 -0.53125 0.125 c -0.34375 0 -0.60938 -0.10156 -0.79688 -0.3125 c -0.17969 -0.21875 -0.26562 -0.53125 -0.26562 -0.9375 z" stroke-linecap="round"/>
</g>
		<g transform="matrix(1.3333 0 0 1.3333 -313.5365 300.5937)">
<path style="stroke: none; stroke-width: 1; stroke-dasharray: none; stroke-linecap: butt; stroke-dashoffset: 0; stroke-linejoin: miter; stroke-miterlimit: 4; is-custom-font: none; font-file-url: none; fill: rgb(0,0,0); fill-rule: nonzero; opacity: 1;" transform=" translate(-2.0625, 0.961)" d="m 1.4219 -0.4375 v 1.5781 h -0.96875 v -4.125 h 0.96875 v 0.4375 c 0.125 -0.17578 0.26562 -0.30469 0.42188 -0.39062 c 0.16406 -0.082031 0.35156 -0.125 0.5625 -0.125 c 0.36328 0 0.66406 0.14844 0.90625 0.4375 c 0.23828 0.29297 0.35938 0.66797 0.35938 1.125 c 0 0.46875 -0.12109 0.85156 -0.35938 1.1406 c -0.24219 0.29297 -0.54297 0.4375 -0.90625 0.4375 c -0.21094 0 -0.39844 -0.042969 -0.5625 -0.125 c -0.15625 -0.082031 -0.29688 -0.21094 -0.42188 -0.39062 z m 0.625 -1.9375 c -0.19922 0 -0.35547 0.078125 -0.46875 0.23438 c -0.10547 0.14844 -0.15625 0.35938 -0.15625 0.64062 c 0 0.29297 0.050781 0.51562 0.15625 0.67188 c 0.11328 0.14844 0.26953 0.21875 0.46875 0.21875 c 0.20703 0 0.36328 -0.070313 0.46875 -0.21875 c 0.11328 -0.15625 0.17188 -0.37891 0.17188 -0.67188 c 0 -0.28125 -0.058594 -0.49219 -0.17188 -0.64062 c -0.10547 -0.15625 -0.26172 -0.23438 -0.46875 -0.23438 z" stroke-linecap="round"/>
</g>
		<g transform="matrix(1.3333 0 0 1.3333 -308.7344 299.8852)">
<path style="stroke: none; stroke-width: 1; stroke-dasharray: none; stroke-linecap: butt; stroke-dashoffset: 0; stroke-linejoin: miter; stroke-miterlimit: 4; is-custom-font: none; font-file-url: none; fill: rgb(0,0,0); fill-rule: nonzero; opacity: 1;" transform=" translate(-1.7501, 1.4923)" d="m 1.7969 -1.3438 c -0.19922 0 -0.35156 0.039062 -0.45312 0.10938 c -0.09375 0.0625 -0.14062 0.16406 -0.14062 0.29688 c 0 0.11719 0.035156 0.21094 0.10938 0.28125 c 0.082031 0.0625 0.19531 0.09375 0.34375 0.09375 c 0.17578 0 0.32812 -0.0625 0.45312 -0.1875 s 0.1875 -0.28516 0.1875 -0.48438 v -0.10938 z m 1.4688 -0.35938 v 1.7031 h -0.96875 v -0.4375 c -0.125 0.17969 -0.27344 0.30859 -0.4375 0.39062 c -0.15625 0.082031 -0.35156 0.125 -0.57812 0.125 c -0.3125 0 -0.57031 -0.085938 -0.76562 -0.26562 c -0.1875 -0.1875 -0.28125 -0.42188 -0.28125 -0.70312 c 0 -0.35156 0.11719 -0.61328 0.35938 -0.78125 c 0.23828 -0.16406 0.61719 -0.25 1.1406 -0.25 h 0.5625 v -0.0625 c 0 -0.15625 -0.0625 -0.26562 -0.1875 -0.32812 c -0.11719 -0.070312 -0.29688 -0.10938 -0.54688 -0.10938 c -0.21094 0 -0.40234 0.023437 -0.57812 0.0625 c -0.17969 0.042969 -0.33984 0.10156 -0.48438 0.17188 v -0.71875 c 0.19531 -0.050781 0.39844 -0.085938 0.60938 -0.10938 c 0.20703 -0.03125 0.41406 -0.046875 0.625 -0.046875 c 0.53906 0 0.92969 0.10938 1.1719 0.32812 c 0.23828 0.21094 0.35938 0.55469 0.35938 1.0312 z" stroke-linecap="round"/>
</g>
		<g transform="matrix(1.3333 0 0 1.3333 -304.901 299.1041)">
<path style="stroke: none; stroke-width: 1; stroke-dasharray: none; stroke-linecap: butt; stroke-dashoffset: 0; stroke-linejoin: miter; stroke-miterlimit: 4; is-custom-font: none; font-file-url: none; fill: rgb(0,0,0); fill-rule: nonzero; opacity: 1;" transform=" translate(-0.9375, 2.0781)" d="m 0.45312 -4.1562 h 0.96875 v 4.1562 h -0.96875 z" stroke-linecap="round"/>
</g>
		<g transform="matrix(1.3333 0 0 1.3333 -301.2032 299.8854)">
<path style="stroke: none; stroke-width: 1; stroke-dasharray: none; stroke-linecap: butt; stroke-dashoffset: 0; stroke-linejoin: miter; stroke-miterlimit: 4; is-custom-font: none; font-file-url: none; fill: rgb(0,0,0); fill-rule: nonzero; opacity: 1;" transform=" translate(-1.836, 1.4922)" d="m 3.4375 -1.5 v 0.26562 h -2.2344 c 0.03125 0.23047 0.11328 0.40234 0.25 0.51562 c 0.13281 0.10547 0.32812 0.15625 0.57812 0.15625 c 0.20703 0 0.41406 -0.023438 0.625 -0.078125 c 0.20703 -0.0625 0.42188 -0.15625 0.64062 -0.28125 v 0.73438 c -0.21875 0.09375 -0.44531 0.16406 -0.67188 0.20312 c -0.23047 0.039062 -0.45312 0.0625 -0.67188 0.0625 c -0.54297 0 -0.96484 -0.13281 -1.2656 -0.40625 c -0.30469 -0.28125 -0.45312 -0.67188 -0.45312 -1.1719 c 0 -0.47656 0.14453 -0.85938 0.4375 -1.1406 c 0.30078 -0.28125 0.70703 -0.42188 1.2188 -0.42188 c 0.46875 0 0.84375 0.14062 1.125 0.42188 s 0.42188 0.66406 0.42188 1.1406 z m -0.96875 -0.32812 c 0 -0.17578 -0.058594 -0.31641 -0.17188 -0.42188 c -0.10547 -0.11328 -0.24219 -0.17188 -0.40625 -0.17188 c -0.1875 0 -0.33984 0.054687 -0.45312 0.15625 c -0.11719 0.10547 -0.1875 0.25 -0.21875 0.4375 z" stroke-linecap="round"/>
</g>
		<g transform="matrix(1.3333 0 0 1.3333 -296.6094 299.8332)">
<path style="stroke: none; stroke-width: 1; stroke-dasharray: none; stroke-linecap: butt; stroke-dashoffset: 0; stroke-linejoin: miter; stroke-miterlimit: 4; is-custom-font: none; font-file-url: none; fill: rgb(0,0,0); fill-rule: nonzero; opacity: 1;" transform=" translate(-1.5703, 1.5313)" d="m 2.6875 -2.1719 c -0.085938 -0.039063 -0.16797 -0.070313 -0.25 -0.09375 c -0.085938 -0.019531 -0.16797 -0.03125 -0.25 -0.03125 c -0.25 0 -0.44531 0.085937 -0.57812 0.25 c -0.125 0.15625 -0.1875 0.38281 -0.1875 0.67188 v 1.375 h -0.96875 v -2.9844 h 0.96875 v 0.48438 c 0.11328 -0.19531 0.25 -0.33594 0.40625 -0.42188 c 0.16406 -0.09375 0.35938 -0.14062 0.57812 -0.14062 h 0.10938 c 0.039063 0 0.09375 0.007812 0.15625 0.015625 z" stroke-linecap="round"/>
</g>
		<g transform="matrix(1.3333 0 0 1.3333 -292.3177 299.1041)">
<path style="stroke: none; stroke-width: 1; stroke-dasharray: none; stroke-linecap: butt; stroke-dashoffset: 0; stroke-linejoin: miter; stroke-miterlimit: 4; is-custom-font: none; font-file-url: none; fill: rgb(0,0,0); fill-rule: nonzero; opacity: 1;" transform=" translate(-2.0938, 2.0781)" d="m 0.45312 -4.1562 h 0.96875 v 2.2656 l 1.0938 -1.0938 h 1.1094 l -1.4531 1.3594 l 1.5625 1.625 h -1.1562 l -1.1562 -1.25 v 1.25 h -0.96875 z" stroke-linecap="round"/>
</g>
		<g transform="matrix(1.3333 0 0 1.3333 -286.4688 299.1041)">
<path style="stroke: none; stroke-width: 1; stroke-dasharray: none; stroke-linecap: butt; stroke-dashoffset: 0; stroke-linejoin: miter; stroke-miterlimit: 4; is-custom-font: none; font-file-url: none; fill: rgb(0,0,0); fill-rule: nonzero; opacity: 1;" transform=" translate(-0.9375, 2.0781)" d="m 0.45312 -4.1562 h 0.96875 v 4.1562 h -0.96875 z" stroke-linecap="round"/>
</g>
		<g transform="matrix(1.3333 0 0 1.3333 -282.8854 299.8852)">
<path style="stroke: none; stroke-width: 1; stroke-dasharray: none; stroke-linecap: butt; stroke-dashoffset: 0; stroke-linejoin: miter; stroke-miterlimit: 4; is-custom-font: none; font-file-url: none; fill: rgb(0,0,0); fill-rule: nonzero; opacity: 1;" transform=" translate(-1.7501, 1.4923)" d="m 1.7969 -1.3438 c -0.19922 0 -0.35156 0.039062 -0.45312 0.10938 c -0.09375 0.0625 -0.14062 0.16406 -0.14062 0.29688 c 0 0.11719 0.035156 0.21094 0.10938 0.28125 c 0.082031 0.0625 0.19531 0.09375 0.34375 0.09375 c 0.17578 0 0.32812 -0.0625 0.45312 -0.1875 s 0.1875 -0.28516 0.1875 -0.48438 v -0.10938 z m 1.4688 -0.35938 v 1.7031 h -0.96875 v -0.4375 c -0.125 0.17969 -0.27344 0.30859 -0.4375 0.39062 c -0.15625 0.082031 -0.35156 0.125 -0.57812 0.125 c -0.3125 0 -0.57031 -0.085938 -0.76562 -0.26562 c -0.1875 -0.1875 -0.28125 -0.42188 -0.28125 -0.70312 c 0 -0.35156 0.11719 -0.61328 0.35938 -0.78125 c 0.23828 -0.16406 0.61719 -0.25 1.1406 -0.25 h 0.5625 v -0.0625 c 0 -0.15625 -0.0625 -0.26562 -0.1875 -0.32812 c -0.11719 -0.070312 -0.29688 -0.10938 -0.54688 -0.10938 c -0.21094 0 -0.40234 0.023437 -0.57812 0.0625 c -0.17969 0.042969 -0.33984 0.10156 -0.48438 0.17188 v -0.71875 c 0.19531 -0.050781 0.39844 -0.085938 0.60938 -0.10938 c 0.20703 -0.03125 0.41406 -0.046875 0.625 -0.046875 c 0.53906 0 0.92969 0.10938 1.1719 0.32812 c 0.23828 0.21094 0.35938 0.55469 0.35938 1.0312 z" stroke-linecap="round"/>
</g>
		<g transform="matrix(1.3333 0 0 1.3333 -279.0521 299.104)">
<path style="stroke: none; stroke-width: 1; stroke-dasharray: none; stroke-linecap: butt; stroke-dashoffset: 0; stroke-linejoin: miter; stroke-miterlimit: 4; is-custom-font: none; font-file-url: none; fill: rgb(0,0,0); fill-rule: nonzero; opacity: 1;" transform=" translate(-0.9375, 2.0781)" d="m 0.45312 -2.9844 h 0.96875 v 2.9844 h -0.96875 z m 0 -1.1719 h 0.96875 v 0.78125 h -0.96875 z" stroke-linecap="round"/>
</g>
		<g transform="matrix(1.3333 0 0 1.3333 -275.0521 300.5937)">
<path style="stroke: none; stroke-width: 1; stroke-dasharray: none; stroke-linecap: butt; stroke-dashoffset: 0; stroke-linejoin: miter; stroke-miterlimit: 4; is-custom-font: none; font-file-url: none; fill: rgb(0,0,0); fill-rule: nonzero; opacity: 1;" transform=" translate(-2.0625, 0.961)" d="m 1.4219 -0.4375 v 1.5781 h -0.96875 v -4.125 h 0.96875 v 0.4375 c 0.125 -0.17578 0.26562 -0.30469 0.42188 -0.39062 c 0.16406 -0.082031 0.35156 -0.125 0.5625 -0.125 c 0.36328 0 0.66406 0.14844 0.90625 0.4375 c 0.23828 0.29297 0.35938 0.66797 0.35938 1.125 c 0 0.46875 -0.12109 0.85156 -0.35938 1.1406 c -0.24219 0.29297 -0.54297 0.4375 -0.90625 0.4375 c -0.21094 0 -0.39844 -0.042969 -0.5625 -0.125 c -0.15625 -0.082031 -0.29688 -0.21094 -0.42188 -0.39062 z m 0.625 -1.9375 c -0.19922 0 -0.35547 0.078125 -0.46875 0.23438 c -0.10547 0.14844 -0.15625 0.35938 -0.15625 0.64062 c 0 0.29297 0.050781 0.51562 0.15625 0.67188 c 0.11328 0.14844 0.26953 0.21875 0.46875 0.21875 c 0.20703 0 0.36328 -0.070313 0.46875 -0.21875 c 0.11328 -0.15625 0.17188 -0.37891 0.17188 -0.67188 c 0 -0.28125 -0.058594 -0.49219 -0.17188 -0.64062 c -0.10547 -0.15625 -0.26172 -0.23438 -0.46875 -0.23438 z" stroke-linecap="round"/>
</g>
		<g transform="matrix(1.3333 0 0 1.3333 -270.25 299.8852)">
<path style="stroke: none; stroke-width: 1; stroke-dasharray: none; stroke-linecap: butt; stroke-dashoffset: 0; stroke-linejoin: miter; stroke-miterlimit: 4; is-custom-font: none; font-file-url: none; fill: rgb(0,0,0); fill-rule: nonzero; opacity: 1;" transform=" translate(-1.7501, 1.4923)" d="m 1.7969 -1.3438 c -0.19922 0 -0.35156 0.039062 -0.45312 0.10938 c -0.09375 0.0625 -0.14062 0.16406 -0.14062 0.29688 c 0 0.11719 0.035156 0.21094 0.10938 0.28125 c 0.082031 0.0625 0.19531 0.09375 0.34375 0.09375 c 0.17578 0 0.32812 -0.0625 0.45312 -0.1875 s 0.1875 -0.28516 0.1875 -0.48438 v -0.10938 z m 1.4688 -0.35938 v 1.7031 h -0.96875 v -0.4375 c -0.125 0.17969 -0.27344 0.30859 -0.4375 0.39062 c -0.15625 0.082031 -0.35156 0.125 -0.57812 0.125 c -0.3125 0 -0.57031 -0.085938 -0.76562 -0.26562 c -0.1875 -0.1875 -0.28125 -0.42188 -0.28125 -0.70312 c 0 -0.35156 0.11719 -0.61328 0.35938 -0.78125 c 0.23828 -0.16406 0.61719 -0.25 1.1406 -0.25 h 0.5625 v -0.0625 c 0 -0.15625 -0.0625 -0.26562 -0.1875 -0.32812 c -0.11719 -0.070312 -0.29688 -0.10938 -0.54688 -0.10938 c -0.21094 0 -0.40234 0.023437 -0.57812 0.0625 c -0.17969 0.042969 -0.33984 0.10156 -0.48438 0.17188 v -0.71875 c 0.19531 -0.050781 0.39844 -0.085938 0.60938 -0.10938 c 0.20703 -0.03125 0.41406 -0.046875 0.625 -0.046875 c 0.53906 0 0.92969 0.10938 1.1719 0.32812 c 0.23828 0.21094 0.35938 0.55469 0.35938 1.0312 z" stroke-linecap="round"/>
</g>
		<g transform="matrix(1.3333 0 0 1.3333 -264.2969 299.8853)">
<path style="stroke: none; stroke-width: 1; stroke-dasharray: none; stroke-linecap: butt; stroke-dashoffset: 0; stroke-linejoin: miter; stroke-miterlimit: 4; is-custom-font: none; font-file-url: none; fill: rgb(0,0,0); fill-rule: nonzero; opacity: 1;" transform=" translate(-2.5234, 1.4922)" d="m 0.1875 -2.9844 h 0.9375 l 0.5 2.0625 l 0.5 -2.0625 h 0.79688 l 0.5 2.0312 l 0.51562 -2.0312 h 0.92188 l -0.78125 2.9844 h -1.0469 l -0.5 -2.0625 l -0.5 2.0625 h -1.0469 z" stroke-linecap="round"/>
</g>
		<g transform="matrix(1.3333 0 0 1.3333 -258.5937 299.8852)">
<path style="stroke: none; stroke-width: 1; stroke-dasharray: none; stroke-linecap: butt; stroke-dashoffset: 0; stroke-linejoin: miter; stroke-miterlimit: 4; is-custom-font: none; font-file-url: none; fill: rgb(0,0,0); fill-rule: nonzero; opacity: 1;" transform=" translate(-1.7501, 1.4923)" d="m 1.7969 -1.3438 c -0.19922 0 -0.35156 0.039062 -0.45312 0.10938 c -0.09375 0.0625 -0.14062 0.16406 -0.14062 0.29688 c 0 0.11719 0.035156 0.21094 0.10938 0.28125 c 0.082031 0.0625 0.19531 0.09375 0.34375 0.09375 c 0.17578 0 0.32812 -0.0625 0.45312 -0.1875 s 0.1875 -0.28516 0.1875 -0.48438 v -0.10938 z m 1.4688 -0.35938 v 1.7031 h -0.96875 v -0.4375 c -0.125 0.17969 -0.27344 0.30859 -0.4375 0.39062 c -0.15625 0.082031 -0.35156 0.125 -0.57812 0.125 c -0.3125 0 -0.57031 -0.085938 -0.76562 -0.26562 c -0.1875 -0.1875 -0.28125 -0.42188 -0.28125 -0.70312 c 0 -0.35156 0.11719 -0.61328 0.35938 -0.78125 c 0.23828 -0.16406 0.61719 -0.25 1.1406 -0.25 h 0.5625 v -0.0625 c 0 -0.15625 -0.0625 -0.26562 -0.1875 -0.32812 c -0.11719 -0.070312 -0.29688 -0.10938 -0.54688 -0.10938 c -0.21094 0 -0.40234 0.023437 -0.57812 0.0625 c -0.17969 0.042969 -0.33984 0.10156 -0.48438 0.17188 v -0.71875 c 0.19531 -0.050781 0.39844 -0.085938 0.60938 -0.10938 c 0.20703 -0.03125 0.41406 -0.046875 0.625 -0.046875 c 0.53906 0 0.92969 0.10938 1.1719 0.32812 c 0.23828 0.21094 0.35938 0.55469 0.35938 1.0312 z" stroke-linecap="round"/>
</g>
		<g transform="matrix(1.3333 0 0 1.3333 -254.2969 299.3124)">
<path style="stroke: none; stroke-width: 1; stroke-dasharray: none; stroke-linecap: butt; stroke-dashoffset: 0; stroke-linejoin: miter; stroke-miterlimit: 4; is-custom-font: none; font-file-url: none; fill: rgb(0,0,0); fill-rule: nonzero; opacity: 1;" transform=" translate(-1.2813, 1.922)" d="m 1.5 -3.8438 v 0.85938 h 0.98438 v 0.67188 h -0.98438 v 1.2812 c 0 0.13672 0.023438 0.23047 0.078125 0.28125 c 0.0625 0.042969 0.17578 0.0625 0.34375 0.0625 h 0.48438 v 0.6875 h -0.8125 c -0.38672 0 -0.65625 -0.078125 -0.8125 -0.23438 s -0.23438 -0.42188 -0.23438 -0.79688 v -1.2812 h -0.46875 v -0.67188 h 0.46875 v -0.85938 z" stroke-linecap="round"/>
</g>
		<g transform="matrix(1.3333 0 0 1.3333 -371.6458 306.3958)">
<path style="stroke: none; stroke-width: 1; stroke-dasharray: none; stroke-linecap: butt; stroke-dashoffset: 0; stroke-linejoin: miter; stroke-miterlimit: 4; is-custom-font: none; font-file-url: none; fill: rgb(0,0,0); fill-rule: nonzero; opacity: 1;" transform=" translate(-1.2657, 2.0781)" d="m 2.4219 -4.1562 v 0.625 h -0.51562 c -0.13672 0 -0.23438 0.027344 -0.29688 0.078125 c -0.054687 0.054687 -0.078125 0.13672 -0.078125 0.25 v 0.21875 h 0.82812 v 0.67188 h -0.82812 v 2.3125 h -0.95312 v -2.3125 h -0.46875 v -0.67188 h 0.46875 v -0.21875 c 0 -0.32031 0.085937 -0.5625 0.26562 -0.71875 c 0.1875 -0.15625 0.47266 -0.23438 0.85938 -0.23438 z" stroke-linecap="round"/>
</g>
		<g transform="matrix(1.3333 0 0 1.3333 -368.0678 307.1249)">
<path style="stroke: none; stroke-width: 1; stroke-dasharray: none; stroke-linecap: butt; stroke-dashoffset: 0; stroke-linejoin: miter; stroke-miterlimit: 4; is-custom-font: none; font-file-url: none; fill: rgb(0,0,0); fill-rule: nonzero; opacity: 1;" transform=" translate(-1.5703, 1.5313)" d="m 2.6875 -2.1719 c -0.085938 -0.039063 -0.16797 -0.070313 -0.25 -0.09375 c -0.085938 -0.019531 -0.16797 -0.03125 -0.25 -0.03125 c -0.25 0 -0.44531 0.085937 -0.57812 0.25 c -0.125 0.15625 -0.1875 0.38281 -0.1875 0.67188 v 1.375 h -0.96875 v -2.9844 h 0.96875 v 0.48438 c 0.11328 -0.19531 0.25 -0.33594 0.40625 -0.42188 c 0.16406 -0.09375 0.35938 -0.14062 0.57812 -0.14062 h 0.10938 c 0.039063 0 0.09375 0.007812 0.15625 0.015625 z" stroke-linecap="round"/>
</g>
		<g transform="matrix(1.3333 0 0 1.3333 -364.0625 307.1771)">
<path style="stroke: none; stroke-width: 1; stroke-dasharray: none; stroke-linecap: butt; stroke-dashoffset: 0; stroke-linejoin: miter; stroke-miterlimit: 4; is-custom-font: none; font-file-url: none; fill: rgb(0,0,0); fill-rule: nonzero; opacity: 1;" transform=" translate(-1.875, 1.4922)" d="m 1.875 -2.375 c -0.21094 0 -0.37109 0.078125 -0.48438 0.23438 c -0.10547 0.14844 -0.15625 0.35938 -0.15625 0.64062 c 0 0.29297 0.050781 0.51562 0.15625 0.67188 c 0.11328 0.14844 0.27344 0.21875 0.48438 0.21875 c 0.20703 0 0.36719 -0.070313 0.48438 -0.21875 c 0.11328 -0.15625 0.17188 -0.37891 0.17188 -0.67188 c 0 -0.28125 -0.058594 -0.49219 -0.17188 -0.64062 c -0.11719 -0.15625 -0.27734 -0.23438 -0.48438 -0.23438 z m 0 -0.6875 c 0.51953 0 0.92188 0.14062 1.2031 0.42188 c 0.28906 0.27344 0.4375 0.65234 0.4375 1.1406 c 0 0.5 -0.14844 0.89062 -0.4375 1.1719 c -0.28125 0.27344 -0.68359 0.40625 -1.2031 0.40625 c -0.51172 0 -0.91406 -0.13281 -1.2031 -0.40625 c -0.29297 -0.28125 -0.4375 -0.67188 -0.4375 -1.1719 c 0 -0.48828 0.14453 -0.86719 0.4375 -1.1406 c 0.28906 -0.28125 0.69141 -0.42188 1.2031 -0.42188 z" stroke-linecap="round"/>
</g>
		<g transform="matrix(1.3333 0 0 1.3333 -357.7449 307.125)">
<path style="stroke: none; stroke-width: 1; stroke-dasharray: none; stroke-linecap: butt; stroke-dashoffset: 0; stroke-linejoin: miter; stroke-miterlimit: 4; is-custom-font: none; font-file-url: none; fill: rgb(0,0,0); fill-rule: nonzero; opacity: 1;" transform=" translate(-2.8594, 1.5312)" d="m 3.2344 -2.5 c 0.11328 -0.17578 0.25391 -0.3125 0.42188 -0.40625 c 0.16406 -0.10156 0.35156 -0.15625 0.5625 -0.15625 c 0.33203 0 0.58594 0.10938 0.76562 0.32812 c 0.1875 0.21094 0.28125 0.51172 0.28125 0.90625 v 1.8281 h -0.96875 v -1.5625 c 0.007813 -0.019531 0.015625 -0.039062 0.015625 -0.0625 v -0.10938 c 0 -0.21875 -0.03125 -0.375 -0.09375 -0.46875 s -0.16406 -0.14062 -0.29688 -0.14062 c -0.1875 0 -0.33594 0.078125 -0.4375 0.23438 c -0.09375 0.14844 -0.14062 0.35938 -0.14062 0.64062 v 1.4688 h -0.96875 v -1.5625 c 0 -0.33203 -0.03125 -0.54688 -0.09375 -0.64062 c -0.054688 -0.09375 -0.15234 -0.14062 -0.29688 -0.14062 c -0.17969 0 -0.32031 0.078125 -0.42188 0.23438 c -0.09375 0.14844 -0.14062 0.35938 -0.14062 0.64062 v 1.4688 h -0.96875 v -2.9844 h 0.96875 v 0.4375 c 0.11328 -0.17578 0.24219 -0.30469 0.39062 -0.39062 c 0.15625 -0.082031 0.32812 -0.125 0.51562 -0.125 c 0.20703 0 0.39062 0.054688 0.54688 0.15625 c 0.15625 0.09375 0.27344 0.23047 0.35938 0.40625 z" stroke-linecap="round"/>
</g>
		<g transform="matrix(1.3333 0 0 1.3333 -349.7084 306.604)">
<path style="stroke: none; stroke-width: 1; stroke-dasharray: none; stroke-linecap: butt; stroke-dashoffset: 0; stroke-linejoin: miter; stroke-miterlimit: 4; is-custom-font: none; font-file-url: none; fill: rgb(0,0,0); fill-rule: nonzero; opacity: 1;" transform=" translate(-1.2813, 1.922)" d="m 1.5 -3.8438 v 0.85938 h 0.98438 v 0.67188 h -0.98438 v 1.2812 c 0 0.13672 0.023438 0.23047 0.078125 0.28125 c 0.0625 0.042969 0.17578 0.0625 0.34375 0.0625 h 0.48438 v 0.6875 h -0.8125 c -0.38672 0 -0.65625 -0.078125 -0.8125 -0.23438 s -0.23438 -0.42188 -0.23438 -0.79688 v -1.2812 h -0.46875 v -0.67188 h 0.46875 v -0.85938 z" stroke-linecap="round"/>
</g>
		<g transform="matrix(1.3333 0 0 1.3333 -345.3177 306.3959)">
<path style="stroke: none; stroke-width: 1; stroke-dasharray: none; stroke-linecap: butt; stroke-dashoffset: 0; stroke-linejoin: miter; stroke-miterlimit: 4; is-custom-font: none; font-file-url: none; fill: rgb(0,0,0); fill-rule: nonzero; opacity: 1;" transform=" translate(-1.961, 2.078)" d="m 3.4688 -1.8281 v 1.8281 h -0.96875 v -1.3906 c 0 -0.25781 -0.007812 -0.4375 -0.015625 -0.53125 c -0.011719 -0.10156 -0.03125 -0.17578 -0.0625 -0.21875 c -0.03125 -0.0625 -0.085937 -0.10938 -0.15625 -0.14062 c -0.0625 -0.039062 -0.13281 -0.0625 -0.20312 -0.0625 c -0.21094 0 -0.37109 0.078125 -0.48438 0.23438 c -0.10547 0.15625 -0.15625 0.37109 -0.15625 0.64062 v 1.4688 h -0.96875 v -4.1562 h 0.96875 v 1.6094 c 0.13281 -0.17578 0.28516 -0.30469 0.45312 -0.39062 c 0.16406 -0.082031 0.34375 -0.125 0.53125 -0.125 c 0.34375 0 0.60156 0.10938 0.78125 0.32812 c 0.1875 0.21094 0.28125 0.51172 0.28125 0.90625 z" stroke-linecap="round"/>
</g>
		<g transform="matrix(1.3333 0 0 1.3333 -340.297 307.177)">
<path style="stroke: none; stroke-width: 1; stroke-dasharray: none; stroke-linecap: butt; stroke-dashoffset: 0; stroke-linejoin: miter; stroke-miterlimit: 4; is-custom-font: none; font-file-url: none; fill: rgb(0,0,0); fill-rule: nonzero; opacity: 1;" transform=" translate(-1.836, 1.4922)" d="m 3.4375 -1.5 v 0.26562 h -2.2344 c 0.03125 0.23047 0.11328 0.40234 0.25 0.51562 c 0.13281 0.10547 0.32812 0.15625 0.57812 0.15625 c 0.20703 0 0.41406 -0.023438 0.625 -0.078125 c 0.20703 -0.0625 0.42188 -0.15625 0.64062 -0.28125 v 0.73438 c -0.21875 0.09375 -0.44531 0.16406 -0.67188 0.20312 c -0.23047 0.039062 -0.45312 0.0625 -0.67188 0.0625 c -0.54297 0 -0.96484 -0.13281 -1.2656 -0.40625 c -0.30469 -0.28125 -0.45312 -0.67188 -0.45312 -1.1719 c 0 -0.47656 0.14453 -0.85938 0.4375 -1.1406 c 0.30078 -0.28125 0.70703 -0.42188 1.2188 -0.42188 c 0.46875 0 0.84375 0.14062 1.125 0.42188 s 0.42188 0.66406 0.42188 1.1406 z m -0.96875 -0.32812 c 0 -0.17578 -0.058594 -0.31641 -0.17188 -0.42188 c -0.10547 -0.11328 -0.24219 -0.17188 -0.40625 -0.17188 c -0.1875 0 -0.33984 0.054687 -0.45312 0.15625 c -0.11719 0.10547 -0.1875 0.25 -0.21875 0.4375 z" stroke-linecap="round"/>
</g>
		<g transform="matrix(1.3333 0 0 1.3333 -332.2084 306.5104)">
<path style="stroke: none; stroke-width: 1; stroke-dasharray: none; stroke-linecap: butt; stroke-dashoffset: 0; stroke-linejoin: miter; stroke-miterlimit: 4; is-custom-font: none; font-file-url: none; fill: rgb(0,0,0); fill-rule: nonzero; opacity: 1;" transform=" translate(-2.289, 1.9922)" d="m 0.5 -3.9844 h 1.1562 l 1.4375 2.7344 v -2.7344 h 0.98438 v 3.9844 h -1.1562 l -1.4375 -2.7344 v 2.7344 h -0.98438 z" stroke-linecap="round"/>
</g>
		<g transform="matrix(1.3333 0 0 1.3333 -326.6563 307.1771)">
<path style="stroke: none; stroke-width: 1; stroke-dasharray: none; stroke-linecap: butt; stroke-dashoffset: 0; stroke-linejoin: miter; stroke-miterlimit: 4; is-custom-font: none; font-file-url: none; fill: rgb(0,0,0); fill-rule: nonzero; opacity: 1;" transform=" translate(-1.875, 1.4922)" d="m 1.875 -2.375 c -0.21094 0 -0.37109 0.078125 -0.48438 0.23438 c -0.10547 0.14844 -0.15625 0.35938 -0.15625 0.64062 c 0 0.29297 0.050781 0.51562 0.15625 0.67188 c 0.11328 0.14844 0.27344 0.21875 0.48438 0.21875 c 0.20703 0 0.36719 -0.070313 0.48438 -0.21875 c 0.11328 -0.15625 0.17188 -0.37891 0.17188 -0.67188 c 0 -0.28125 -0.058594 -0.49219 -0.17188 -0.64062 c -0.11719 -0.15625 -0.27734 -0.23438 -0.48438 -0.23438 z m 0 -0.6875 c 0.51953 0 0.92188 0.14062 1.2031 0.42188 c 0.28906 0.27344 0.4375 0.65234 0.4375 1.1406 c 0 0.5 -0.14844 0.89062 -0.4375 1.1719 c -0.28125 0.27344 -0.68359 0.40625 -1.2031 0.40625 c -0.51172 0 -0.91406 -0.13281 -1.2031 -0.40625 c -0.29297 -0.28125 -0.4375 -0.67188 -0.4375 -1.1719 c 0 -0.48828 0.14453 -0.86719 0.4375 -1.1406 c 0.28906 -0.28125 0.69141 -0.42188 1.2031 -0.42188 z" stroke-linecap="round"/>
</g>
		<g transform="matrix(1.3333 0 0 1.3333 -321.573 307.2291)">
<path style="stroke: none; stroke-width: 1; stroke-dasharray: none; stroke-linecap: butt; stroke-dashoffset: 0; stroke-linejoin: miter; stroke-miterlimit: 4; is-custom-font: none; font-file-url: none; fill: rgb(0,0,0); fill-rule: nonzero; opacity: 1;" transform=" translate(-1.9297, 1.4532)" d="m 0.42188 -1.1719 v -1.8125 h 0.96875 v 0.29688 v 0.60938 v 0.48438 c 0 0.24219 0.003906 0.41797 0.015625 0.53125 c 0.007812 0.10547 0.03125 0.17969 0.0625 0.21875 c 0.039062 0.0625 0.09375 0.11719 0.15625 0.15625 c 0.0625 0.03125 0.13281 0.046875 0.21875 0.046875 c 0.19531 0 0.35156 -0.078125 0.46875 -0.23438 c 0.11328 -0.15625 0.17188 -0.36719 0.17188 -0.64062 v -1.4688 h 0.95312 v 2.9844 h -0.95312 v -0.4375 c -0.14844 0.17969 -0.30469 0.30859 -0.46875 0.39062 c -0.15625 0.082031 -0.33594 0.125 -0.53125 0.125 c -0.34375 0 -0.60938 -0.10156 -0.79688 -0.3125 c -0.17969 -0.21875 -0.26562 -0.53125 -0.26562 -0.9375 z" stroke-linecap="round"/>
</g>
		<g transform="matrix(1.3333 0 0 1.3333 -316.3386 307.125)">
<path style="stroke: none; stroke-width: 1; stroke-dasharray: none; stroke-linecap: butt; stroke-dashoffset: 0; stroke-linejoin: miter; stroke-miterlimit: 4; is-custom-font: none; font-file-url: none; fill: rgb(0,0,0); fill-rule: nonzero; opacity: 1;" transform=" translate(-1.961, 1.5312)" d="m 3.4688 -1.8281 v 1.8281 h -0.96875 v -1.3906 c 0 -0.25781 -0.007812 -0.4375 -0.015625 -0.53125 c -0.011719 -0.10156 -0.03125 -0.17578 -0.0625 -0.21875 c -0.03125 -0.0625 -0.085937 -0.10938 -0.15625 -0.14062 c -0.0625 -0.039062 -0.13281 -0.0625 -0.20312 -0.0625 c -0.21094 0 -0.37109 0.078125 -0.48438 0.23438 c -0.10547 0.15625 -0.15625 0.37109 -0.15625 0.64062 v 1.4688 h -0.96875 v -2.9844 h 0.96875 v 0.4375 c 0.13281 -0.17578 0.28516 -0.30469 0.45312 -0.39062 c 0.16406 -0.082031 0.34375 -0.125 0.53125 -0.125 c 0.34375 0 0.60156 0.10938 0.78125 0.32812 c 0.1875 0.21094 0.28125 0.51172 0.28125 0.90625 z" stroke-linecap="round"/>
</g>
		<g transform="matrix(1.3333 0 0 1.3333 -308.3699 306.5103)">
<path style="stroke: none; stroke-width: 1; stroke-dasharray: none; stroke-linecap: butt; stroke-dashoffset: 0; stroke-linejoin: miter; stroke-miterlimit: 4; is-custom-font: none; font-file-url: none; fill: rgb(0,0,0); fill-rule: nonzero; opacity: 1;" transform=" translate(-2.1406, 1.9922)" d="m 0.5 -3.9844 h 1.7031 c 0.50781 0 0.89844 0.11719 1.1719 0.34375 c 0.26953 0.21875 0.40625 0.53906 0.40625 0.95312 c 0 0.41797 -0.13672 0.74219 -0.40625 0.96875 c -0.27344 0.21875 -0.66406 0.32812 -1.1719 0.32812 h -0.67188 v 1.3906 h -1.0312 z m 1.0312 0.75 v 1.1094 h 0.5625 c 0.19531 0 0.34766 -0.046875 0.45312 -0.14062 c 0.11328 -0.10156 0.17188 -0.24219 0.17188 -0.42188 c 0 -0.17578 -0.058594 -0.3125 -0.17188 -0.40625 c -0.10547 -0.09375 -0.25781 -0.14062 -0.45312 -0.14062 z" stroke-linecap="round"/>
</g>
		<g transform="matrix(1.3333 0 0 1.3333 -303.7865 307.1249)">
<path style="stroke: none; stroke-width: 1; stroke-dasharray: none; stroke-linecap: butt; stroke-dashoffset: 0; stroke-linejoin: miter; stroke-miterlimit: 4; is-custom-font: none; font-file-url: none; fill: rgb(0,0,0); fill-rule: nonzero; opacity: 1;" transform=" translate(-1.5703, 1.5313)" d="m 2.6875 -2.1719 c -0.085938 -0.039063 -0.16797 -0.070313 -0.25 -0.09375 c -0.085938 -0.019531 -0.16797 -0.03125 -0.25 -0.03125 c -0.25 0 -0.44531 0.085937 -0.57812 0.25 c -0.125 0.15625 -0.1875 0.38281 -0.1875 0.67188 v 1.375 h -0.96875 v -2.9844 h 0.96875 v 0.48438 c 0.11328 -0.19531 0.25 -0.33594 0.40625 -0.42188 c 0.16406 -0.09375 0.35938 -0.14062 0.57812 -0.14062 h 0.10938 c 0.039063 0 0.09375 0.007812 0.15625 0.015625 z" stroke-linecap="round"/>
</g>
		<g transform="matrix(1.3333 0 0 1.3333 -299.7865 307.1771)">
<path style="stroke: none; stroke-width: 1; stroke-dasharray: none; stroke-linecap: butt; stroke-dashoffset: 0; stroke-linejoin: miter; stroke-miterlimit: 4; is-custom-font: none; font-file-url: none; fill: rgb(0,0,0); fill-rule: nonzero; opacity: 1;" transform=" translate(-1.875, 1.4922)" d="m 1.875 -2.375 c -0.21094 0 -0.37109 0.078125 -0.48438 0.23438 c -0.10547 0.14844 -0.15625 0.35938 -0.15625 0.64062 c 0 0.29297 0.050781 0.51562 0.15625 0.67188 c 0.11328 0.14844 0.27344 0.21875 0.48438 0.21875 c 0.20703 0 0.36719 -0.070313 0.48438 -0.21875 c 0.11328 -0.15625 0.17188 -0.37891 0.17188 -0.67188 c 0 -0.28125 -0.058594 -0.49219 -0.17188 -0.64062 c -0.11719 -0.15625 -0.27734 -0.23438 -0.48438 -0.23438 z m 0 -0.6875 c 0.51953 0 0.92188 0.14062 1.2031 0.42188 c 0.28906 0.27344 0.4375 0.65234 0.4375 1.1406 c 0 0.5 -0.14844 0.89062 -0.4375 1.1719 c -0.28125 0.27344 -0.68359 0.40625 -1.2031 0.40625 c -0.51172 0 -0.91406 -0.13281 -1.2031 -0.40625 c -0.29297 -0.28125 -0.4375 -0.67188 -0.4375 -1.1719 c 0 -0.48828 0.14453 -0.86719 0.4375 -1.1406 c 0.28906 -0.28125 0.69141 -0.42188 1.2031 -0.42188 z" stroke-linecap="round"/>
</g>
		<g transform="matrix(1.3333 0 0 1.3333 -296.4532 307.1874)">
<path style="stroke: none; stroke-width: 1; stroke-dasharray: none; stroke-linecap: butt; stroke-dashoffset: 0; stroke-linejoin: miter; stroke-miterlimit: 4; is-custom-font: none; font-file-url: none; fill: rgb(0,0,0); fill-rule: nonzero; opacity: 1;" transform=" translate(-0.6172, 1.4844)" d="m 0.45312 -2.9844 h 0.96875 v 2.9375 c 0 0.39453 -0.10156 0.69531 -0.29688 0.90625 c -0.1875 0.21875 -0.46484 0.32812 -0.82812 0.32812 h -0.48438 v -0.64062 h 0.17188 c 0.17578 0 0.29688 -0.042969 0.35938 -0.125 c 0.070312 -0.074219 0.10938 -0.23047 0.10938 -0.46875 z m 0 -1.1719 h 0.96875 v 0.78125 h -0.96875 z" stroke-linecap="round"/>
</g>
		<g transform="matrix(1.3333 0 0 1.3333 -292.3282 307.177)">
<path style="stroke: none; stroke-width: 1; stroke-dasharray: none; stroke-linecap: butt; stroke-dashoffset: 0; stroke-linejoin: miter; stroke-miterlimit: 4; is-custom-font: none; font-file-url: none; fill: rgb(0,0,0); fill-rule: nonzero; opacity: 1;" transform=" translate(-1.836, 1.4922)" d="m 3.4375 -1.5 v 0.26562 h -2.2344 c 0.03125 0.23047 0.11328 0.40234 0.25 0.51562 c 0.13281 0.10547 0.32812 0.15625 0.57812 0.15625 c 0.20703 0 0.41406 -0.023438 0.625 -0.078125 c 0.20703 -0.0625 0.42188 -0.15625 0.64062 -0.28125 v 0.73438 c -0.21875 0.09375 -0.44531 0.16406 -0.67188 0.20312 c -0.23047 0.039062 -0.45312 0.0625 -0.67188 0.0625 c -0.54297 0 -0.96484 -0.13281 -1.2656 -0.40625 c -0.30469 -0.28125 -0.45312 -0.67188 -0.45312 -1.1719 c 0 -0.47656 0.14453 -0.85938 0.4375 -1.1406 c 0.30078 -0.28125 0.70703 -0.42188 1.2188 -0.42188 c 0.46875 0 0.84375 0.14062 1.125 0.42188 s 0.42188 0.66406 0.42188 1.1406 z m -0.96875 -0.32812 c 0 -0.17578 -0.058594 -0.31641 -0.17188 -0.42188 c -0.10547 -0.11328 -0.24219 -0.17188 -0.40625 -0.17188 c -0.1875 0 -0.33984 0.054687 -0.45312 0.15625 c -0.11719 0.10547 -0.1875 0.25 -0.21875 0.4375 z" stroke-linecap="round"/>
</g>
		<g transform="matrix(1.3333 0 0 1.3333 -287.7604 307.1771)">
<path style="stroke: none; stroke-width: 1; stroke-dasharray: none; stroke-linecap: butt; stroke-dashoffset: 0; stroke-linejoin: miter; stroke-miterlimit: 4; is-custom-font: none; font-file-url: none; fill: rgb(0,0,0); fill-rule: nonzero; opacity: 1;" transform=" translate(-1.5547, 1.4922)" d="m 2.875 -2.8906 v 0.76562 c -0.125 -0.082031 -0.25781 -0.14453 -0.39062 -0.1875 c -0.13672 -0.039062 -0.27344 -0.0625 -0.40625 -0.0625 c -0.27344 0 -0.48047 0.078125 -0.625 0.23438 c -0.14844 0.15625 -0.21875 0.37109 -0.21875 0.64062 c 0 0.28125 0.070313 0.5 0.21875 0.65625 c 0.14453 0.15625 0.35156 0.23438 0.625 0.23438 c 0.14453 0 0.28516 -0.019531 0.42188 -0.0625 c 0.13281 -0.039063 0.25781 -0.10938 0.375 -0.20312 v 0.78125 c -0.14844 0.0625 -0.29688 0.10156 -0.45312 0.125 c -0.15625 0.03125 -0.3125 0.046875 -0.46875 0.046875 c -0.54297 0 -0.96484 -0.13281 -1.2656 -0.40625 c -0.30469 -0.28125 -0.45312 -0.67188 -0.45312 -1.1719 c 0 -0.48828 0.14844 -0.86719 0.45312 -1.1406 c 0.30078 -0.28125 0.72266 -0.42188 1.2656 -0.42188 c 0.15625 0 0.3125 0.015625 0.46875 0.046875 c 0.15625 0.023437 0.30469 0.0625 0.45312 0.125 z" stroke-linecap="round"/>
</g>
		<g transform="matrix(1.3333 0 0 1.3333 -283.8021 306.604)">
<path style="stroke: none; stroke-width: 1; stroke-dasharray: none; stroke-linecap: butt; stroke-dashoffset: 0; stroke-linejoin: miter; stroke-miterlimit: 4; is-custom-font: none; font-file-url: none; fill: rgb(0,0,0); fill-rule: nonzero; opacity: 1;" transform=" translate(-1.2813, 1.922)" d="m 1.5 -3.8438 v 0.85938 h 0.98438 v 0.67188 h -0.98438 v 1.2812 c 0 0.13672 0.023438 0.23047 0.078125 0.28125 c 0.0625 0.042969 0.17578 0.0625 0.34375 0.0625 h 0.48438 v 0.6875 h -0.8125 c -0.38672 0 -0.65625 -0.078125 -0.8125 -0.23438 s -0.23438 -0.42188 -0.23438 -0.79688 v -1.2812 h -0.46875 v -0.67188 h 0.46875 v -0.85938 z" stroke-linecap="round"/>
</g>
</g>
</g>
</svg>