<?xml version="1.0" encoding="UTF-8" standalone="no"?> <svg width="64" height="64" viewBox="0 0 64 64" fill="none" xmlns="http://www.w3.org/2000/svg">
<path d="M53.5899 19.0001C55.7899 13.5601 49.1899 8.57008 44.5299 12.1101C43.5093 11.3489 42.273 10.9322 40.9999 10.9201C40.8951 9.92234 40.5417 8.96683 39.9722 8.14093C39.4027 7.31504 38.6352 6.64514 37.7398 6.19251C36.8445 5.73988 35.85 5.51897 34.8473 5.54999C33.8445 5.58101 32.8656 5.86297 31.9999 6.37008C31.1343 5.86297 30.1553 5.58101 29.1526 5.54999C28.1499 5.51897 27.1553 5.73988 26.26 6.19251C25.3647 6.64514 24.5972 7.31504 24.0277 8.14093C23.4581 8.96683 23.1048 9.92234 22.9999 10.9201C21.7393 10.9327 20.5147 11.3421 19.4999 12.0901C14.8099 8.55008 8.20993 13.5401 10.4099 19.0001C9.23424 19.2994 8.17864 19.9521 7.38553 20.8701C6.59242 21.7881 6.09997 22.9274 5.97462 24.134C5.84926 25.3407 6.09703 26.5568 6.6845 27.6183C7.27197 28.6798 8.17087 29.5355 9.25993 30.0701C9.40429 30.138 9.56279 30.1703 9.7222 30.1645C9.88162 30.1586 10.0373 30.1147 10.1763 30.0364C10.3153 29.9581 10.4335 29.8477 10.5211 29.7144C10.6087 29.581 10.6632 29.4287 10.6799 29.2701H53.3199C53.3367 29.4287 53.3911 29.581 53.4787 29.7144C53.5663 29.8477 53.6846 29.9581 53.8236 30.0364C53.9625 30.1147 54.1182 30.1586 54.2777 30.1645C54.4371 30.1703 54.5956 30.138 54.7399 30.0701C55.829 29.5355 56.7279 28.6798 57.3154 27.6183C57.9028 26.5568 58.1506 25.3407 58.0252 24.134C57.8999 22.9274 57.4074 21.7881 56.6143 20.8701C55.8212 19.9521 54.7656 19.2994 53.5899 19.0001V19.0001Z" fill="url(#paint0_linear)"/>
<path d="M60.82 50.1L57.13 33.94C57.0792 33.7144 56.9518 33.5134 56.7694 33.3712C56.5871 33.229 56.3611 33.1543 56.13 33.16H7.83997C7.60881 33.1543 7.38283 33.229 7.20051 33.3712C7.01818 33.5134 6.89077 33.7144 6.83997 33.94L3.17997 50.11C2.24997 53.88 4.71997 58.54 8.76997 58.53H55.23C59.28 58.54 61.75 53.88 60.82 50.1Z" fill="url(#paint1_linear)"/>
<path d="M56.1899 28.1702H7.80993C3.33993 28.2602 3.30993 35.0602 7.80993 35.1702H56.1899C60.6599 35.0702 60.6899 28.2702 56.1899 28.1702Z" fill="url(#paint2_linear)"/>
<path d="M31.9999 45.28C30.1986 45.2692 28.4655 45.9683 27.1759 47.2261C25.8863 48.4839 25.1441 50.199 25.1099 52C24.9999 54.45 29.3799 55.47 31.9999 55.36C35.1799 55.36 38.8999 54.47 38.8999 51.99C38.871 50.1864 38.1287 48.4678 36.8355 47.2102C35.5423 45.9527 33.8036 45.2586 31.9999 45.28V45.28Z" fill="url(#paint3_linear)"/>
<path d="M34.05 43.5301C35.63 44.2001 36.86 42.8401 37.32 41.1801C37.97 39.1801 36.98 36.1801 34.65 37.1001C32.6 38.0001 31.9 42.4801 34.05 43.5301Z" fill="url(#paint4_linear)"/>
<path d="M41.7599 42.2502C39.5599 39.0402 35.5199 43.6702 37.0899 46.2502C39.2999 49.4102 43.3299 44.7802 41.7599 42.2502Z" fill="url(#paint5_linear)"/>
<path d="M28.4199 43.5401C32.0899 44.7501 31.9499 38.0901 29.3599 37.1001C25.6799 35.9001 25.8299 42.5501 28.4199 43.5401Z" fill="url(#paint6_linear)"/>
<path d="M26.9199 46.2101C28.4799 43.6701 24.4299 39.0601 22.2299 42.2701C20.6699 44.8001 24.7099 49.4201 26.9199 46.2101Z" fill="url(#paint7_linear)"/>
<path d="M32.2 12.64C31.5033 13.2103 30.6304 13.5213 29.73 13.52C28.91 13.52 28.06 13.16 27.73 14.19C27.4 15.22 28.79 15.55 29.73 15.52C31 15.52 34.73 14.52 33.61 12.77C33.5261 12.6687 33.423 12.585 33.3066 12.5237C33.1903 12.4623 33.063 12.4245 32.932 12.4124C32.801 12.4004 32.6689 12.4142 32.5433 12.4533C32.4177 12.4923 32.3011 12.5558 32.2 12.64Z" fill="white"/>
<path d="M46.1299 20.19C45.5482 20.19 44.9901 19.9596 44.5778 19.5492C44.1655 19.1388 43.9326 18.5817 43.9299 18C43.9299 17.7348 43.8246 17.4804 43.637 17.2929C43.4495 17.1054 43.1951 17 42.9299 17C42.6647 17 42.4104 17.1054 42.2228 17.2929C42.0353 17.4804 41.9299 17.7348 41.9299 18C41.9326 19.1122 42.3762 20.1779 43.1636 20.9634C43.951 21.7489 45.0178 22.19 46.1299 22.19C46.3951 22.19 46.6495 22.0846 46.837 21.8971C47.0246 21.7096 47.1299 21.4552 47.1299 21.19C47.1299 20.9248 47.0246 20.6704 46.837 20.4829C46.6495 20.2954 46.3951 20.19 46.1299 20.19Z" fill="white"/>
<path d="M27.2999 19C26.0817 19 24.9132 19.4833 24.0508 20.3438C23.1884 21.2043 22.7026 22.3717 22.7 23.59C22.7 23.8552 22.8053 24.1096 22.9928 24.2971C23.1804 24.4846 23.4347 24.59 23.7 24.59C23.9652 24.59 24.2195 24.4846 24.4071 24.2971C24.5946 24.1096 24.7 23.8552 24.7 23.59C24.7026 22.9022 24.9777 22.2434 25.465 21.758C25.9523 21.2726 26.6121 21 27.2999 21C27.5652 21 27.8195 20.8946 28.0071 20.7071C28.1946 20.5196 28.2999 20.2652 28.2999 20C28.2999 19.7348 28.1946 19.4804 28.0071 19.2929C27.8195 19.1054 27.5652 19 27.2999 19Z" fill="white"/>
<path d="M18.1699 21.4202C17.9047 21.4202 17.6504 21.5255 17.4628 21.7131C17.2753 21.9006 17.1699 22.1549 17.1699 22.4202C17.1699 23.2486 16.8415 24.0432 16.2567 24.6299C15.6719 25.2166 14.8783 25.5475 14.0499 25.5502C13.7847 25.5502 13.5304 25.6555 13.3428 25.8431C13.1553 26.0306 13.0499 26.2849 13.0499 26.5502C13.0499 26.8154 13.1553 27.0697 13.3428 27.2573C13.5304 27.4448 13.7847 27.5502 14.0499 27.5502C15.4088 27.5475 16.711 27.0059 17.6709 26.0441C18.6308 25.0823 19.1699 23.779 19.1699 22.4202C19.1699 22.1549 19.0646 21.9006 18.877 21.7131C18.6895 21.5255 18.4351 21.4202 18.1699 21.4202Z" fill="white"/>
<path d="M34.84 20.26C34.5747 20.26 34.3204 20.3654 34.1329 20.5529C33.9453 20.7404 33.84 20.9948 33.84 21.26C33.84 21.5252 33.9453 21.7796 34.1329 21.9671C34.3204 22.1547 34.5747 22.26 34.84 22.26C35.6356 22.26 36.3987 22.5761 36.9613 23.1387C37.5239 23.7013 37.84 24.4644 37.84 25.26C37.84 25.5252 37.9453 25.7796 38.1329 25.9671C38.3204 26.1547 38.5747 26.26 38.84 26.26C39.1052 26.26 39.3595 26.1547 39.5471 25.9671C39.7346 25.7796 39.84 25.5252 39.84 25.26C39.84 23.9339 39.3132 22.6622 38.3755 21.7245C37.4378 20.7868 36.166 20.26 34.84 20.26Z" fill="white"/>
<defs>
<linearGradient id="paint0_linear" x1="5.90993" y1="17.8201" x2="58.0899" y2="17.8201" gradientUnits="userSpaceOnUse">
<stop stop-color="#EDD06D"/>
<stop offset="0.35" stop-color="#E0B858"/>
<stop offset="1" stop-color="#C2822A"/>
</linearGradient>
<linearGradient id="paint1_linear" x1="2.98997" y1="45.85" x2="61.01" y2="45.85" gradientUnits="userSpaceOnUse">
<stop stop-color="#141C2C"/>
<stop offset="0.84" stop-color="#090D14"/>
<stop offset="1" stop-color="#070A0F"/>
</linearGradient>
<linearGradient id="paint2_linear" x1="4.44993" y1="31.6702" x2="59.5499" y2="31.6702" gradientUnits="userSpaceOnUse">
<stop stop-color="#C6C6C6"/>
<stop offset="0.42" stop-color="#AEAEAE"/>
<stop offset="1" stop-color="#878787"/>
</linearGradient>
<linearGradient id="paint3_linear" x1="25.1099" y1="50.32" x2="38.9199" y2="50.32" gradientUnits="userSpaceOnUse">
<stop stop-color="#FDFBF7"/>
<stop offset="0.35" stop-color="#F5F0DF"/>
<stop offset="1" stop-color="#E3D7A9"/>
</linearGradient>
<linearGradient id="paint4_linear" x1="189.159" y1="310.118" x2="211.996" y2="310.118" gradientUnits="userSpaceOnUse">
<stop stop-color="#FDFBF7"/>
<stop offset="0.35" stop-color="#F5F0DF"/>
<stop offset="1" stop-color="#E3D7A9"/>
</linearGradient>
<linearGradient id="paint5_linear" x1="234.254" y1="313.571" x2="263.239" y2="313.571" gradientUnits="userSpaceOnUse">
<stop stop-color="#FDFBF7"/>
<stop offset="0.35" stop-color="#F5F0DF"/>
<stop offset="1" stop-color="#E3D7A9"/>
</linearGradient>
<linearGradient id="paint6_linear" x1="151.691" y1="308.337" x2="173.959" y2="308.337" gradientUnits="userSpaceOnUse">
<stop stop-color="#FDFBF7"/>
<stop offset="0.35" stop-color="#F5F0DF"/>
<stop offset="1" stop-color="#E3D7A9"/>
</linearGradient>
<linearGradient id="paint7_linear" x1="139.776" y1="312.457" x2="168.819" y2="312.457" gradientUnits="userSpaceOnUse">
<stop stop-color="#FDFBF7"/>
<stop offset="0.35" stop-color="#F5F0DF"/>
<stop offset="1" stop-color="#E3D7A9"/>
</linearGradient>
</defs>
</svg>
